<?xml version="1.0" encoding="utf-8"?>
<!-- Generator: Adobe Illustrator 24.0.2, SVG Export Plug-In . SVG Version: 6.00 Build 0)  -->
<svg version="1.1" id="Layer_1" xmlns="http://www.w3.org/2000/svg" xmlns:xlink="http://www.w3.org/1999/xlink" x="0px" y="0px"
	 viewBox="0 0 800 600" style="enable-background:new 0 0 800 600;" xml:space="preserve">
<style type="text/css">
	.st0{fill:none;stroke:#000000;stroke-width:12;stroke-linecap:round;stroke-linejoin:round;stroke-miterlimit:10;}
</style>
<g>
	<path class="st0" d="M662.5,197.5v276c0,27-21.1,48.9-47.1,48.9H184.7c-26,0-47.1-21.9-47.1-48.9v-276c0-3.3,0.3-20.6,13.8-34.6
		c8.5-8.9,20.3-14.3,33.3-14.3h58.9v44c-1.9,15.1,11.8,27.6,26.2,27.1c13.9-0.4,26.4-12.6,24.5-27.1v-44h208.5v44
		c-1.9,15.1,11.8,27.6,26.2,27.1c13.9-0.4,26.4-12.6,24.5-27.1v-44h62C641.3,148.6,662.5,170.6,662.5,197.5z"/>
	<path class="st0" d="M269.7,219.8c-14.4,0.4-28.1-12-26.2-27.1V99.8c0.6-12.1,11.3-21.6,23.9-22.2c13.9-0.7,26.7,9.8,26.7,23.2
		v91.9C296.1,207.2,283.6,219.4,269.7,219.8z"/>
	<path class="st0" d="M528.8,219.8c-14.4,0.4-28.1-12-26.2-27.1V99.8c0.6-12.1,11.3-21.6,23.9-22.2c13.9-0.7,26.7,9.8,26.7,23.2
		v91.9C555.2,207.2,542.7,219.4,528.8,219.8z"/>
	<rect x="277.4" y="261.4" class="st0" width="56.8" height="48.6"/>
	<rect x="371.6" y="261.4" class="st0" width="56.8" height="48.6"/>
	<rect x="465.9" y="261.4" class="st0" width="56.8" height="48.6"/>
	<rect x="560.1" y="261.4" class="st0" width="56.8" height="48.6"/>
	<rect x="183.1" y="341.1" class="st0" width="56.8" height="48.6"/>
	<rect x="277.4" y="341.1" class="st0" width="56.8" height="48.6"/>
	<rect x="371.6" y="341.1" class="st0" width="56.8" height="48.6"/>
	<rect x="465.9" y="341.1" class="st0" width="56.8" height="48.6"/>
	<rect x="560.1" y="341.1" class="st0" width="56.8" height="48.6"/>
	<rect x="183.1" y="420.8" class="st0" width="56.8" height="48.6"/>
	<rect x="277.4" y="420.8" class="st0" width="56.8" height="48.6"/>
	<rect x="371.6" y="420.8" class="st0" width="56.8" height="48.6"/>
	<rect x="465.9" y="420.8" class="st0" width="56.8" height="48.6"/>
	<rect x="560.1" y="420.8" class="st0" width="56.8" height="48.6"/>
</g>
</svg>
