<?xml version="1.0" encoding="utf-8"?>
<!-- Generator: Adobe Illustrator 27.7.0, SVG Export Plug-In . SVG Version: 6.00 Build 0)  -->
<svg version="1.1" id="Layer_1" xmlns="http://www.w3.org/2000/svg" xmlns:xlink="http://www.w3.org/1999/xlink" x="0px" y="0px"
	 viewBox="0 0 612 612" style="enable-background:new 0 0 612 612;" xml:space="preserve">
<style type="text/css">
	.st0{fill:#D9D1D1;stroke:#000000;stroke-miterlimit:10;}
	.st1{fill:#020202;stroke:#000000;stroke-miterlimit:10;}
	.st2{fill:#E5C3A3;stroke:#000000;stroke-miterlimit:10;}
	.st3{fill:none;stroke:#000000;stroke-miterlimit:10;}
	.st4{stroke:#000000;stroke-miterlimit:10;}
	.st5{fill:#3F4EA1;stroke:#000000;stroke-miterlimit:10;}
	.st6{fill:#4463AE;stroke:#000000;stroke-miterlimit:10;}
</style>
<g>
	<g>
		<g>
			
				<rect x="80.73" y="283.83" transform="matrix(0.7071 -0.7071 0.7071 0.7071 -125.436 274.697)" class="st0" width="376.28" height="9.87"/>
			
				<rect x="108.66" y="311.76" transform="matrix(0.7071 -0.7071 0.7071 0.7071 -137.0051 302.6273)" class="st0" width="376.28" height="9.87"/>
			
				<rect x="87.72" y="290.81" transform="matrix(0.7071 -0.7071 0.7071 0.7071 -128.3292 281.682)" class="st1" width="376.28" height="9.88"/>
			
				<rect x="101.68" y="304.78" transform="matrix(0.7071 -0.7071 0.7071 0.7071 -134.1138 295.6471)" class="st1" width="376.28" height="9.87"/>
			
				<rect x="94.7" y="297.8" transform="matrix(0.7071 -0.7071 0.7071 0.7071 -131.2225 288.6669)" class="st0" width="376.28" height="9.87"/>
			<path class="st2" d="M457.46,134.77l-24.14,52.38l-34.91-34.91c12.21-5.67,36.86-17.14,52.22-24.28
				c-0.56,1.78,0.13,3.96,1.72,5.44C453.83,134.77,455.84,135.31,457.46,134.77z"/>
			<path class="st3" d="M450.64,127.96L450.64,127.96c4.35-2.03,8.71-4.05,13.06-6.09"/>
			<path class="st4" d="M433.32,187.15l24.14-52.38c-1.63,0.54-3.63,0.01-5.11-1.37c-1.59-1.49-2.28-3.66-1.72-5.44l0.01-0.01
				c4.34-2.03,8.7-4.04,13.05-6.08L433.32,187.15z"/>
		</g>
		<g>
			<path class="st1" d="M122.77,427.89l34.91,34.91l-20.52,20.52c-7.06,7.31-41.17-29.24-34.91-34.91L122.77,427.89z"/>
			
				<rect x="138.24" y="415.87" transform="matrix(0.7071 -0.7071 0.7071 0.7071 -269.0448 231.5736)" class="st0" width="13.55" height="49.37"/>
		</g>
		<line class="st3" x1="127.49" y1="423.16" x2="127.46" y2="423.14"/>
		<path class="st1" d="M123.81,461.75"/>
	</g>
	<g>
		<g>
			
				<rect x="231.78" y="158.11" transform="matrix(0.7071 -0.7071 0.7071 0.7071 -100.5372 252.8531)" class="st5" width="46.35" height="179.35"/>
		</g>
		
			<rect x="306.1" y="312.37" transform="matrix(0.7071 -0.7071 0.7071 0.7071 -131.3188 327.1705)" class="st1" width="46.35" height="19.47"/>
		<g>
			<g>
				<g>
					<g>
						<g>
							<path d="M382.91,422.7c16.92,16.92,33.84,33.84,50.76,50.76c1.18,1.18,2.35,2.35,3.53,3.53c0.58,0.58,1.14,1.22,1.76,1.76
								c0.88,0.76,1.68,0.74,2.76,0.63c3.45-0.36,6.89-0.72,10.34-1.06c1.34-0.14,2.5-1.05,2.5-2.5c0-1.25-1.15-2.64-2.5-2.5
								c-3.78,0.38-7.55,0.78-11.33,1.17c0.59,0.24,1.18,0.49,1.77,0.73c-14.57-14.57-29.14-29.14-43.71-43.71
								c-4.11-4.11-8.23-8.23-12.34-12.34C384.17,416.89,380.63,420.42,382.91,422.7L382.91,422.7z"/>
						</g>
					</g>
				</g>
				
					<rect x="381.99" y="306.9" transform="matrix(0.7071 -0.7071 0.7071 0.7071 -162.7558 403.0621)" class="st5" width="46.35" height="182.19"/>
			</g>
		</g>
		<g>
			<polygon class="st1" points="205.07,165.12 172.29,197.9 141.22,134.06 			"/>
			<g>
				<line class="st3" x1="133.45" y1="126.28" x2="141.22" y2="134.05"/>
			</g>
		</g>
		<g>
			<path class="st1" d="M493.24,486.38c-8.59,8.48-26.75,8.88-36.72-4.03c10.74-11.12,21.49-22.25,32.24-33.38
				C502.4,458.81,502.04,477.67,493.24,486.38z"/>
		</g>
		<line class="st3" x1="334.75" y1="294.81" x2="357.13" y2="317.19"/>
		<line class="st3" x1="301.97" y1="327.58" x2="324.36" y2="349.97"/>
	</g>
	<g>
		<g>
			<path d="M571.97,306c-0.04,27.94-4.36,55.76-12.99,82.35c-8.29,25.52-20.51,49.69-36.03,71.57
				c-15.42,21.74-34.19,41.2-55.36,57.38c-21.25,16.24-44.94,29.33-70.06,38.51c-26.07,9.53-53.58,14.93-81.32,15.96
				c-27.94,1.04-55.97-2.24-82.88-9.86c-26-7.37-50.79-18.75-73.37-33.6c-22.19-14.59-42.13-32.53-59.06-52.98
				c-17.1-20.65-31.1-43.98-41.21-68.81c-10.36-25.44-16.77-52.47-18.85-79.86c-2.14-28.1,0.09-56.51,6.77-83.9
				c6.4-26.22,16.82-51.38,30.81-74.47c13.84-22.83,31.1-43.51,51.05-61.24c19.92-17.71,42.52-32.38,66.78-43.42
				c24.98-11.36,51.83-18.79,79.09-21.89c27.94-3.17,56.38-2.02,83.94,3.59c26.65,5.43,52.41,14.97,76.16,28.23
				c23.23,12.97,44.44,29.4,62.83,48.62c18.49,19.33,34.02,41.42,45.96,65.35c12.15,24.35,20.44,50.57,24.63,77.45
				C570.96,278.56,571.95,292.28,571.97,306c0,3.22,5,3.22,5,0c-0.04-28.36-4.41-56.7-13.17-83.67
				c-8.45-26.03-20.88-50.76-36.74-73.05c-15.78-22.17-34.81-41.89-56.39-58.46C449,74.18,424.82,60.9,399.18,51.49
				c-26.46-9.71-54.45-15.16-82.61-16.25c-28.48-1.11-57.16,2.26-84.59,10.03c-26.39,7.48-51.65,19.03-74.57,34.1
				c-22.73,14.95-43.23,33.3-60.52,54.3c-17.33,21.04-31.43,44.59-41.78,69.81c-10.65,25.94-17.1,53.52-19.27,81.47
				c-2.22,28.53,0.09,57.43,6.84,85.24c6.49,26.74,17.14,52.49,31.4,76.02c14.1,23.27,31.74,44.43,52.1,62.49
				c20.35,18.05,43.39,33.06,68.18,44.26c25.43,11.49,52.51,18.96,80.23,22.19c28.5,3.32,57.53,2.08,85.65-3.62
				c27.07-5.48,53.27-15.2,77.4-28.63c23.79-13.24,45.59-30.13,64.39-49.83c18.75-19.65,34.57-42.11,46.66-66.43
				c12.37-24.86,20.89-51.6,25.09-79.05c2.11-13.77,3.17-27.67,3.19-41.6C576.97,302.78,571.97,302.78,571.97,306z"/>
		</g>
	</g>
</g>
<g>
	<g>
		<path class="st6" d="M223.87,527.81l0.75-1.75c4.3,1.26,4.61,0.95,7.43-5.74l10.99-25.4c-9,9.64-23.25,24.64-27.35,29.37
			l-1.3-0.56c0.75-6.4,2.49-25.96,3.56-38.87c-10.24,21.45-12.41,26.35-12.91,27.53c-1.45,3.51-0.42,4.55,2.78,6.44l-0.75,1.75
			l-11.81-5.08l0.75-1.75c3.05,0.87,4.57,0.64,6.42-2.56c1.48-2.61,2.5-4.83,13.58-27.02c1.59-3.15,1.55-4.43-2.62-6.81l0.75-1.75
			l8.67,3.73l-2.59,36.34l25.41-26.51l8.72,3.75l-0.75,1.75c-4.55-1.22-5.34-0.9-7.12,3.51l-10.1,24.02
			c-2.67,6.75-2.66,7.13,1.49,9.58l-0.75,1.75L223.87,527.81z"/>
		<path class="st6" d="M275.62,512.69c-2.87-0.04-3.57,0.38-5.67,3.89c-2.09,3.45-4.45,7.67-10.49,18.49
			c-5.63,9.93-7.43,13.85-8.99,17.13c-0.6,1.33-1.26,1.54-1.95,1.4c-1.7-0.35-2.93-2.19-2.59-3.86c0.18-0.86,0.67-1.39,1.65-2.09
			c2.04-1.31,3.59-2.66,4.57-4.19c1.69-2.56,2.96-4.73,3.4-5.54c0.42-0.95,0.54-1.55,0.45-2.75c-0.52-8-1.72-16.77-2.33-21.88
			c-0.42-3.9-0.74-4.79-3.56-5.86l0.37-1.79l10.74,2.2l-0.37,1.79c-2.54-0.04-2.94,0.58-2.75,3.18l1.81,17.41
			c2.43-4.28,6.06-11.22,8.04-15.18c1.16-2.39,0.93-3.2-2.04-4.37l0.37-1.79l9.73,1.99L275.62,512.69z"/>
		<path class="st6" d="M303.72,497.11c7.63-0.52,12.58,1.04,16.21,4.8c2.88,3.07,5.15,7.67,5.6,14.17
			c0.54,7.92-1.61,14.53-5.51,18.74c-3.85,4.14-9,5.99-15.65,6.45l-12.67,0.87l-0.13-1.89c4.62-0.86,4.8-1.35,4.42-6.9l-1.86-27.01
			c-0.4-5.82-1.07-6.05-5.33-6.3l-0.13-1.9L303.72,497.11z M300.66,532.48c0.35,5.08,2.18,6.38,6.24,6.1
			c9.74-0.67,14.15-9.34,13.33-21.18c-0.51-7.38-2.9-12.86-7.4-15.81c-2.62-1.79-5.81-2.32-9.44-2.07
			c-2.44,0.17-3.71,0.66-4.21,1.24c-0.46,0.44-0.62,1.2-0.44,3.84L300.66,532.48z"/>
		<path class="st6" d="M332.81,499.68c-1.48,0.35-3.19-0.99-3.63-2.84c-0.5-2.11,0.46-3.94,1.99-4.31c1.48-0.35,3.05,0.88,3.55,2.99
			C335.17,497.38,334.34,499.32,332.81,499.68z M335.94,537.36l-0.44-1.85c3.23-1.18,3.52-1.6,2.46-6.09l-3.22-13.6
			c-0.97-4.09-1.19-4.32-4.51-4.23l-0.38-1.58c2.6-1.25,4.88-2.69,6.87-4.42c0.66,2.77,1.31,5.55,1.97,8.32l3.44,14.53
			c1.06,4.49,1.51,4.73,5.04,4.31l0.44,1.85L335.94,537.36z"/>
		<path class="st6" d="M370.04,528.01c-0.77,0.27-2.07,0.16-2.83-0.36c-0.96-0.59-1.59-1.38-2.25-2.44
			c-1.43,2.46-3.09,5.71-4.67,6.28c-3.63,1.3-7.58-1.54-9.04-5.63c-1.12-3.13-0.47-5.67,1.91-7.89c2.64-2.45,5.88-5.48,6.59-7.04
			l-0.46-1.28c-1.62-4.54-4.4-6.5-7.05-5.55c-1.17,0.42-1.64,1.38-1.88,2.33c-0.24,1.1-0.1,2.63,0.1,4.65
			c0.11,1.11-0.19,1.73-0.96,2c-0.97,0.35-2.71-0.47-3.25-2.01c-0.32-0.89,0.07-1.9,0.77-3.16c1-1.87,3.12-5.29,5.76-7.1
			c1.53-0.55,3.32-0.54,4.91,0.19c2.47,1.28,4.07,3.16,5.25,6.48l4.41,12.33c1.05,2.94,2.24,3.52,3.16,3.2
			c0.61-0.22,1.16-0.78,1.59-1.36l1.15,1.61L370.04,528.01z M360.54,513.18c-0.87,1.1-2.84,3.32-3.79,4.38
			c-1.55,1.78-2.29,3.41-1.45,5.78c1.21,3.39,3.8,4.19,5.44,3.61c1.33-0.47,2.8-2.15,3.37-3.8
			C363.03,520.15,361.61,516.18,360.54,513.18z"/>
		<path class="st6" d="M390.46,517.7l-11.17,5.56l-0.85-1.7c2.88-1.89,3.02-2.34,1.05-6.29l-6.29-12.63c-2-4.01-2.28-4.09-5.31-3.12
			l-0.76-1.52c2.14-1.67,3.96-3.49,5.61-5.9c1,2,2.33,4.68,3.33,6.68c0.13-4,0.5-8.36,2.93-9.57c1.8-0.89,3.51,0,4.27,1.51
			c0.7,1.4,0.58,3.12,0.01,4.16c-0.3,0.61-0.72,0.74-1.32,0.51c-1.18-0.55-2.07-0.87-2.94-0.43c-1.02,0.51-1.88,3.29-1.41,6.92
			l5.69,11.42c2,4.01,2.39,4.19,6.31,2.7L390.46,517.7z"/>
		<path class="st6" d="M404.86,476.21c-2.07,1.99-2.28,2.77-1.32,6.75c0.92,3.93,2.2,8.6,5.46,20.55c2.93,11.03,4.4,15.1,5.58,18.53
			c0.5,1.37,0.18,1.98-0.41,2.37c-1.46,0.94-3.63,0.49-4.55-0.94c-0.48-0.74-0.49-1.46-0.29-2.64c0.54-2.37,0.7-4.41,0.33-6.19
			c-0.59-3.01-1.2-5.45-1.45-6.34c-0.37-0.97-0.7-1.49-1.6-2.28c-5.98-5.35-12.97-10.77-16.99-13.99c-3.03-2.49-3.88-2.91-6.64-1.68
			l-0.99-1.54l9.2-5.95l1,1.54c-1.84,1.75-1.7,2.47,0.26,4.2l13.48,11.16c-1.27-4.76-3.53-12.26-4.9-16.47
			c-0.85-2.52-1.58-2.94-4.51-1.69l-1-1.54l8.34-5.39L404.86,476.21z"/>
	</g>
</g>
<line class="st3" x1="205.07" y1="165.12" x2="488.76" y2="448.96"/>
<line class="st3" x1="172.29" y1="197.9" x2="456.52" y2="482.35"/>
</svg>
