<?xml version="1.0" encoding="utf-8"?>
<!-- Generator: Adobe Illustrator 24.0.2, SVG Export Plug-In . SVG Version: 6.00 Build 0)  -->
<svg version="1.1"
	 id="svg1" inkscape:version="1.3 (0e150ed6c4, 2023-07-21)" sodipodi:docname="Notes-icon.svg" xmlns:inkscape="http://www.inkscape.org/namespaces/inkscape" xmlns:sodipodi="http://sodipodi.sourceforge.net/DTD/sodipodi-0.dtd" xmlns:svg="http://www.w3.org/2000/svg"
	 xmlns="http://www.w3.org/2000/svg" xmlns:xlink="http://www.w3.org/1999/xlink" x="0px" y="0px" viewBox="0 0 141.7 141.7"
	 style="enable-background:new 0 0 141.7 141.7;" xml:space="preserve">
<style type="text/css">
	
		.st0{fill:#FFD5D5;fill-opacity:0;stroke:#FFFFFF;stroke-width:2.452;stroke-linecap:round;stroke-linejoin:round;stroke-miterlimit:11.3386;}
	.st1{fill-opacity:0;stroke:#000000;stroke-width:4.252;stroke-linecap:round;stroke-linejoin:round;stroke-miterlimit:11.3386;}
	.st2{fill-opacity:0;stroke:#000000;stroke-width:5;stroke-linecap:round;stroke-linejoin:round;stroke-miterlimit:11.3386;}
</style>
<sodipodi:namedview  bordercolor="#eeeeee" borderopacity="1" id="namedview1" inkscape:current-layer="layer1" inkscape:cx="112.68537" inkscape:cy="102.392" inkscape:deskcolor="#505050" inkscape:document-units="mm" inkscape:pagecheckerboard="0" inkscape:pageopacity="0" inkscape:showpageshadow="0" inkscape:window-height="991" inkscape:window-maximized="1" inkscape:window-width="1920" inkscape:window-x="-9" inkscape:window-y="-9" inkscape:zoom="2.768771" pagecolor="#505050">
	</sodipodi:namedview>
<path id="path2" sodipodi:nodetypes="ccccc" class="st0" d="M40.1,44.4H100l0,0l0,0h0.3"/>
<path id="path3" sodipodi:nodetypes="ccccc" class="st0" d="M40.1,44.4H100l0,0l0,0h0.3"/>
<path id="path1" sodipodi:nodetypes="cccccc" class="st1" d="M96.6,17.1L26,16.7l-0.3,110.8l92.5,0.6l0-89.8L96.6,17.1z"/>
<path id="path4" sodipodi:nodetypes="ccccc" class="st1" d="M40.1,44.4H100l0,0l0,0h0.3"/>
<path id="path5" sodipodi:nodetypes="ccccc" class="st1" d="M40.4,60.9l59.9,0l0,0l0,0h0.3"/>
<path id="path7" sodipodi:nodetypes="ccccc" class="st2" d="M40.6,76.4h59.9l0,0l0,0h0.3"/>
<path id="path8" sodipodi:nodetypes="ccccc" class="st1" d="M40.9,93.2h59.9l0,0l0,0h0.3"/>
<path id="path9" sodipodi:nodetypes="ccccc" class="st1" d="M41.4,109.4h59.9l0,0l0,0h0.3"/>
</svg>
