<?xml version="1.0" encoding="UTF-8" standalone="no"?>
<!-- Created with Inkscape (http://www.inkscape.org/) -->

<svg
   width="48"
   height="48"
   viewBox="0 0 48 48"
   version="1.1"
   id="svg1"
   inkscape:version="1.3 (0e150ed6c4, 2023-07-21)"
   sodipodi:docname="re-write-icon.svg"
   xmlns:inkscape="http://www.inkscape.org/namespaces/inkscape"
   xmlns:sodipodi="http://sodipodi.sourceforge.net/DTD/sodipodi-0.dtd"
   xmlns="http://www.w3.org/2000/svg"
   xmlns:svg="http://www.w3.org/2000/svg">
  <sodipodi:namedview
     id="namedview1"
     pagecolor="#ffffff"
     bordercolor="#000000"
     borderopacity="0.25"
     inkscape:showpageshadow="2"
     inkscape:pageopacity="0.0"
     inkscape:pagecheckerboard="0"
     inkscape:deskcolor="#d1d1d1"
     inkscape:document-units="px"
     inkscape:zoom="16"
     inkscape:cx="13.3125"
     inkscape:cy="27.53125"
     inkscape:window-width="1920"
     inkscape:window-height="991"
     inkscape:window-x="-9"
     inkscape:window-y="-9"
     inkscape:window-maximized="1"
     inkscape:current-layer="layer1" />
  <defs
     id="defs1" />
  <g
     inkscape:label="Layer 1"
     inkscape:groupmode="layer"
     id="layer1">
    <g
       id="g36"
       transform="matrix(1.0657031,0,0,1.1316688,-0.86875278,-4.7659096)">
      <path
         style="fill:none;stroke:#000000;stroke-width:0.7;stroke-linecap:round;stroke-linejoin:round;stroke-dasharray:none;stroke-opacity:1;paint-order:stroke markers fill"
         d="M 33.452468,13.565783 18.226624,35.134244 13.638517,38.27097 14.461252,33.506991 30.379836,11.388578 c 1.236875,-1.4522489 4.305149,0.383884 3.072632,2.177205 z"
         id="path1"
         sodipodi:nodetypes="cccccc" />
      <path
         style="fill:none;stroke:#000000;stroke-width:0.3;stroke-linecap:round;stroke-linejoin:round;stroke-dasharray:none;stroke-opacity:1;paint-order:stroke markers fill"
         d="m 28.623854,13.859375 c 1.842796,0.03797 2.616739,0.788514 2.983952,1.810208 v 0 0"
         id="path2"
         sodipodi:nodetypes="cccc" />
      <path
         style="fill:none;stroke:#000000;stroke-width:0.3;stroke-linecap:round;stroke-linejoin:round;stroke-dasharray:none;stroke-opacity:1;paint-order:stroke markers fill"
         d="m 14.146718,35.953668 c 0.513687,0.0065 0.737457,0.04849 0.909052,0.142894 0.209251,0.115123 0.341716,0.315297 0.450022,0.845523 v 0"
         id="path3"
         sodipodi:nodetypes="cscc" />
      <path
         style="fill:none;stroke:#000000;stroke-width:0.3;stroke-linecap:round;stroke-linejoin:round;stroke-dasharray:none;stroke-opacity:1;paint-order:stroke markers fill"
         d="m 14.702703,33.297297 3.335907,1.853282 v 0"
         id="path4" />
      <path
         style="fill:none;stroke:#000000;stroke-width:0.3;stroke-linecap:round;stroke-linejoin:round;stroke-dasharray:none;stroke-opacity:1;paint-order:stroke markers fill"
         d="m 15.69112,32.30888 3.150579,1.791506"
         id="path5" />
      <path
         style="fill:none;stroke:#000000;stroke-width:0.3;stroke-linecap:round;stroke-linejoin:round;stroke-dasharray:none;stroke-opacity:1;paint-order:stroke markers fill"
         d="m 28.697005,13.748536 c 1.834572,0.177999 2.549197,0.985225 2.83765,2.031886 v 0 0"
         id="path8"
         sodipodi:nodetypes="cccc" />
      <path
         style="fill:none;stroke:#000000;stroke-width:0.3;stroke-linecap:round;stroke-linejoin:round;stroke-dasharray:none;stroke-opacity:1;paint-order:stroke markers fill"
         d="m 28.017468,14.613401 c 1.834572,0.177999 2.549197,0.985225 2.83765,2.031886 v 0 0"
         id="path9"
         sodipodi:nodetypes="cccc" />
      <path
         style="fill:#000000;stroke:#000000;stroke-width:0.00117188;stroke-linecap:round;stroke-linejoin:round;stroke-dasharray:none;stroke-opacity:1;paint-order:stroke markers fill"
         d="m 14.129142,37.499205 c 0.0011,-0.006 0.05538,-0.319931 0.12054,-0.697606 0.06516,-0.377675 0.119412,-0.68762 0.12056,-0.688768 0.0026,-0.0026 0.117875,0.0046 0.198117,0.01238 0.175579,0.01706 0.286284,0.04333 0.384766,0.09131 0.06483,0.03158 0.10556,0.06083 0.149401,0.107268 0.07005,0.0742 0.129354,0.189186 0.177893,0.34491 l 0.01362,0.0437 -0.54741,0.374218 c -0.301076,0.205819 -0.563643,0.385308 -0.583483,0.398864 -0.03503,0.02393 -0.03601,0.02433 -0.03401,0.01372 z"
         id="path14" />
      <path
         style="fill:#000000;stroke:#000000;stroke-width:0.00117188;stroke-linecap:round;stroke-linejoin:round;stroke-dasharray:none;stroke-opacity:1;paint-order:stroke markers fill"
         d="m 14.132379,37.491555 c 0.0013,-0.0061 0.04711,-0.270364 0.101894,-0.587258 0.05478,-0.316895 0.108034,-0.623633 0.118337,-0.681641 l 0.01873,-0.105469 0.0155,-0.0014 c 0.03536,-0.0031 0.234393,0.01504 0.318235,0.02901 0.164556,0.02742 0.293415,0.0827 0.376462,0.161509 0.04352,0.0413 0.08614,0.101559 0.121094,0.171216 0.03364,0.06704 0.09258,0.229059 0.08566,0.235471 -0.0056,0.0052 -1.140016,0.779869 -1.149253,0.784812 -0.0085,0.0046 -0.0088,0.0042 -0.0067,-0.0063 z"
         id="path15" />
      <path
         style="fill:#000000;stroke:#000000;stroke-width:0.00117188;stroke-linecap:round;stroke-linejoin:round;stroke-dasharray:none;stroke-opacity:1;paint-order:stroke markers fill"
         d="m 14.132417,37.491211 c 0.0012,-0.0059 0.0479,-0.275293 0.103786,-0.598633 0.05588,-0.32334 0.109114,-0.630078 0.118287,-0.681641 l 0.01668,-0.09375 0.05146,6.92e-4 c 0.152579,0.0021 0.357108,0.03386 0.460786,0.07167 0.0505,0.01841 0.12299,0.05633 0.15768,0.08247 0.09827,0.07405 0.172292,0.196642 0.234101,0.387714 0.009,0.0277 0.01487,0.05168 0.01313,0.05329 -0.0017,0.0016 -0.06469,0.04499 -0.139881,0.09638 -0.825154,0.563951 -1.013779,0.692548 -1.015819,0.692548 -0.0013,0 -0.0014,-0.0048 -2.02e-4,-0.01074 z"
         id="path16" />
      <path
         style="fill:#000000;stroke:#000000;stroke-width:0.00117188;stroke-linecap:round;stroke-linejoin:round;stroke-dasharray:none;stroke-opacity:1;paint-order:stroke markers fill"
         d="m 13.59375,38.616689 c -0.119485,-0.01846 -0.223396,-0.09594 -0.271778,-0.202648 -0.02239,-0.04939 -0.02875,-0.08052 -0.02872,-0.140604 l 2.9e-5,-0.05469 0.338836,-1.958984 c 0.186359,-1.077442 0.341702,-1.975245 0.345206,-1.995118 l 0.0064,-0.03613 h 0.353192 0.353191 l -0.0022,0.01074 c -0.0012,0.0059 -0.06201,0.35791 -0.135129,0.782226 -0.07311,0.424317 -0.133868,0.776029 -0.135007,0.781583 l -0.0021,0.0101 0.07341,0.0047 c 0.403895,0.02585 0.642204,0.108625 0.815675,0.283319 0.09917,0.09987 0.167777,0.215514 0.233373,0.393371 l 0.01672,0.04534 1.04679,-0.715646 c 0.575735,-0.393605 1.04679,-0.716984 1.04679,-0.71862 0,-0.0016 -0.353238,-0.199216 -0.784974,-0.439066 l -0.784974,-0.436089 0.302122,-0.001 0.302123,-10e-4 0.621368,0.345213 0.621368,0.345213 0.0262,-0.01742 c 0.02591,-0.01723 0.02878,-0.02107 0.257567,-0.345189 l 0.231366,-0.327765 h 0.425684 c 0.339998,0 0.424908,9.82e-4 0.421831,0.0049 -0.0021,0.0027 -0.173046,0.244825 -0.379837,0.538086 -0.206791,0.293262 -0.38808,0.549246 -0.402864,0.568853 -0.01478,0.01961 -0.03633,0.04372 -0.04787,0.05358 -0.01771,0.01513 -4.509302,3.088548 -4.62056,3.161666 -0.06434,0.04228 -0.115332,0.05907 -0.186596,0.06143 -0.02471,8.18e-4 -0.0502,6.73e-4 -0.05664,-3.24e-4 z m 1.125,-1.505203 c 0.508523,-0.347773 0.577997,-0.396458 0.577064,-0.404391 -5.83e-4,-0.005 -0.0088,-0.03268 -0.01836,-0.0616 -0.105503,-0.320614 -0.236737,-0.443161 -0.536265,-0.500768 -0.0495,-0.0095 -0.07081,-0.01211 -0.06682,-0.0081 10e-4,0.001 0.0287,0.0072 0.06154,0.0137 0.08064,0.01602 0.165374,0.04118 0.195737,0.05812 0.0032,0.0018 0.02432,0.01264 0.04687,0.02409 0.02256,0.01145 0.04189,0.02191 0.04297,0.02324 0.0011,0.0013 0.0125,0.01048 0.02539,0.02034 0.02202,0.01684 0.07227,0.0647 0.07227,0.06883 0,0.001 0.0079,0.01114 0.01758,0.02246 0.0097,0.01132 0.01758,0.02158 0.01758,0.02281 0,0.0012 0.0074,0.01413 0.01634,0.02867 0.036,0.05823 0.07322,0.144001 0.104633,0.241099 l 0.01637,0.0506 -0.01087,0.008 c -0.04204,0.0309 -1.146817,0.783871 -1.148153,0.782535 -9.3e-4,-9.3e-4 0.03087,-0.189645 0.07066,-0.419367 0.06807,-0.392951 0.07955,-0.463517 0.0746,-0.458568 -0.0019,0.0019 -0.154824,0.881748 -0.154824,0.890936 0,0.0054 -0.0799,0.05942 0.595703,-0.40262 z m -0.436301,-0.502214 c -0.0012,-0.0012 -0.0034,9.65e-4 -0.0049,0.0048 -0.0021,0.0056 -0.0017,0.006 0.0022,0.0022 0.0027,-0.0027 0.0039,-0.0058 0.0027,-0.007 z m 0.0039,-0.02344 c -0.0012,-0.0012 -0.0034,9.65e-4 -0.0049,0.0048 -0.0021,0.0056 -0.0017,0.006 0.0022,0.0022 0.0027,-0.0026 0.0039,-0.0058 0.0027,-0.007 z m 0.0043,-0.02138 c -1.41e-4,-0.0039 -0.0014,-0.0032 -0.0036,0.002 -0.0046,0.01074 -0.0046,0.01691 0,0.0098 0.0021,-0.0032 0.0037,-0.0085 0.0036,-0.01172 z m 0.0039,-0.02344 c -1.42e-4,-0.0039 -0.0014,-0.0032 -0.0036,0.002 -0.0046,0.01074 -0.0046,0.01691 0,0.0098 0.0021,-0.0032 0.0037,-0.0085 0.0036,-0.01172 z m 0.0042,-0.01609 c 0,-0.0021 -0.0018,-0.0028 -0.0039,-0.0015 -0.0021,0.0013 -0.0039,0.0042 -0.0039,0.0063 0,0.0021 0.0018,0.0028 0.0039,0.0015 0.0021,-0.0013 0.0039,-0.0042 0.0039,-0.0063 z m 0.0039,-0.01953 c 0,-0.0043 -0.0018,-0.0067 -0.0039,-0.0054 -0.0021,0.0013 -0.0039,0.0059 -0.0039,0.01023 0,0.0043 0.0018,0.0067 0.0039,0.0054 0.0021,-0.0013 0.0039,-0.0059 0.0039,-0.01023 z m 0.0014,-0.01712 c -0.0012,-0.0032 -0.0029,-0.0059 -0.0038,-0.0059 -8.44e-4,0 -0.0015,0.0026 -0.0015,0.0059 0,0.0032 0.0017,0.0059 0.0038,0.0059 0.0021,0 0.0028,-0.0026 0.0015,-0.0059 z m 0.0012,-0.02637 c -0.0011,-0.0027 -0.002,-4.88e-4 -0.002,0.0049 0,0.0054 8.87e-4,0.0076 0.002,0.0049 0.0011,-0.0027 0.0011,-0.0071 0,-0.0098 z m 0.0039,-0.02344 c -0.0011,-0.0027 -0.002,-4.89e-4 -0.002,0.0049 0,0.0054 8.87e-4,0.0076 0.002,0.0049 0.0011,-0.0027 0.0011,-0.0071 0,-0.0098 z m 0.0078,-0.04687 c -0.0011,-0.0027 -0.002,-4.89e-4 -0.002,0.0049 0,0.0054 8.87e-4,0.0076 0.002,0.0049 0.0011,-0.0027 0.0011,-0.0071 0,-0.0098 z m 0.004,-0.01929 c -0.0012,-0.0031 -0.0022,-0.0022 -0.0024,0.0024 -1.7e-4,0.0041 7.53e-4,0.0064 0.0021,0.0051 0.0013,-0.0013 0.0014,-0.0047 3.09e-4,-0.0075 z m 0.0038,-0.02368 c -0.0011,-0.0027 -0.002,-4.88e-4 -0.002,0.0049 0,0.0054 8.87e-4,0.0076 0.002,0.0049 0.0011,-0.0027 0.0011,-0.0071 0,-0.0098 z m 0.0039,-0.02344 c -0.0011,-0.0027 -0.002,-4.88e-4 -0.002,0.0049 0,0.0054 8.86e-4,0.0076 0.002,0.0049 0.0011,-0.0027 0.0011,-0.0071 0,-0.0098 z m 0.0039,-0.02344 c -0.0011,-0.0027 -0.002,-4.88e-4 -0.002,0.0049 0,0.0054 8.87e-4,0.0076 0.002,0.0049 0.0011,-0.0027 0.0011,-0.0071 0,-0.0098 z m 0.004,-0.02141 c -9.9e-4,-0.0038 -0.0019,-0.0016 -0.0019,0.0048 -8e-5,0.0064 7.31e-4,0.0096 0.0018,0.0069 0.0011,-0.0026 0.0011,-0.0079 1.44e-4,-0.01172 z m 0.0038,-0.02156 c -0.0011,-0.0027 -0.002,-4.88e-4 -0.002,0.0049 0,0.0054 8.87e-4,0.0076 0.002,0.0049 0.0011,-0.0027 0.0011,-0.0071 0,-0.0098 z m 0.0039,-0.02344 c -0.0011,-0.0027 -0.002,-4.89e-4 -0.002,0.0049 0,0.0054 8.86e-4,0.0076 0.002,0.0049 0.0011,-0.0027 0.0011,-0.0071 0,-0.0098 z m 0.004,-0.02141 c -9.9e-4,-0.0038 -0.0019,-0.0016 -0.0019,0.0048 -8e-5,0.0064 7.3e-4,0.0096 0.0018,0.0069 0.0011,-0.0026 0.0011,-0.0079 1.45e-4,-0.01172 z m 0.0039,-0.02344 c -9.9e-4,-0.0038 -0.0019,-0.0016 -0.0019,0.0048 -8e-5,0.0064 7.31e-4,0.0096 0.0018,0.0069 0.0011,-0.0026 0.0011,-0.0079 1.44e-4,-0.01172 z m 0.0085,-0.02937 c -3.95e-4,-0.01753 -8.95e-4,-0.01881 -0.0034,-0.0088 -0.0044,0.01736 -0.0044,0.0293 0,0.0293 0.0022,0 0.0037,-0.0091 0.0034,-0.02051 z m 0.009,-0.0332 c 0.0012,-0.01035 0.0022,-0.01079 0.02663,-0.01194 0.02397,-0.0011 0.191267,0.01162 0.2387,0.01819 0.01205,0.0017 0.02517,0.0019 0.02916,4.88e-4 0.01127,-0.004 -0.137929,-0.01885 -0.252692,-0.02522 -0.04509,-0.0025 -0.04539,-0.0025 -0.0478,0.0065 -0.0035,0.01317 -0.0031,0.02271 0.0011,0.02271 0.002,0 0.0042,-0.0048 0.0049,-0.01074 z"
         id="path17" />
      <path
         style="fill:#000000;stroke:#000000;stroke-width:0.00117188;stroke-linecap:round;stroke-linejoin:round;stroke-dasharray:none;stroke-opacity:1;paint-order:stroke markers fill"
         d="m 13.59375,38.616689 c -0.131535,-0.02033 -0.241446,-0.11065 -0.283539,-0.233008 -0.01503,-0.0437 -0.02052,-0.08313 -0.01805,-0.129775 0.0014,-0.02619 0.115488,-0.69507 0.346164,-2.029236 0.189254,-1.094595 0.344098,-1.991519 0.344098,-1.993164 0,-0.0016 0.159222,-0.003 0.353826,-0.003 h 0.353826 l -0.0022,0.01074 c -0.0012,0.0059 -0.06199,0.35791 -0.135108,0.782226 -0.07312,0.424317 -0.133872,0.775987 -0.13501,0.78149 l -0.0021,0.01 0.07339,0.0048 c 0.274461,0.0179 0.456182,0.05793 0.607296,0.133758 0.205945,0.103348 0.337355,0.262774 0.436923,0.530073 0.01307,0.03509 0.0225,0.05516 0.02539,0.05405 0.0039,-0.0015 0.851666,-0.580561 1.844841,-1.260093 0.136022,-0.09307 0.245885,-0.170492 0.244141,-0.172057 -0.0026,-0.0024 -0.720829,-0.402014 -1.39757,-0.777691 l -0.171741,-0.09534 0.302534,-0.001 0.302535,-10e-4 0.613348,0.340591 c 0.337341,0.187326 0.616403,0.342435 0.620139,0.344687 0.0094,0.0057 0.03077,-0.0061 0.05601,-0.03093 0.01098,-0.0108 0.119965,-0.161493 0.243647,-0.336914 l 0.223774,-0.317382 h 0.425795 c 0.340058,0 0.42503,9.83e-4 0.421996,0.0049 -0.0021,0.0027 -0.181123,0.25625 -0.397853,0.563477 -0.283164,0.401402 -0.401236,0.565739 -0.419576,0.583984 -0.01933,0.01924 -0.193149,0.139959 -0.716883,0.497915 -0.380249,0.259888 -0.80474,0.550058 -0.943314,0.644823 -1.038181,0.709965 -1.316275,0.900117 -1.900391,1.299423 -0.363086,0.248209 -0.756836,0.517479 -0.875,0.598379 -0.118164,0.0809 -0.228906,0.153989 -0.246093,0.16242 -0.04477,0.02196 -0.08505,0.03163 -0.138672,0.03329 -0.02471,7.64e-4 -0.0502,5.75e-4 -0.05664,-4.22e-4 z m 0.548828,-1.115416 c 0,-0.002 0.0015,-0.0028 0.0033,-0.0016 0.0018,0.0011 0.007,-0.0014 0.01156,-0.0056 0.0045,-0.0042 0.0093,-0.0077 0.0107,-0.0077 0.0051,0 0.08809,-0.05951 0.08595,-0.06165 -0.0012,-0.0012 -0.02871,0.01583 -0.06105,0.03791 -0.03235,0.02208 -0.05954,0.03942 -0.06042,0.03854 -8.83e-4,-8.82e-4 1.05e-4,-0.01204 0.0022,-0.0248 0.0066,-0.04053 0.0034,-0.04817 -0.0041,-0.0095 -0.01004,0.05216 -0.01003,0.05248 0.0021,0.04456 0.0054,-0.0035 0.0098,-0.0081 0.0098,-0.01009 z m 0.0156,-0.161587 c 0.01095,-0.06207 0.01402,-0.08741 0.01012,-0.0835 -0.002,0.002 -0.02975,0.161602 -0.02929,0.168503 7.18e-4,0.0107 0.0079,-0.02127 0.01917,-0.085 z m 0.113304,0.07851 c 0,-0.0041 -0.0075,-0.0059 -0.0097,-0.0022 -0.0013,0.0022 2.87e-4,0.004 0.0036,0.004 0.0033,0 0.0061,-7.75e-4 0.0061,-0.0017 z m 0.02214,-0.01959 c 0,-0.0031 -0.0015,-0.0048 -0.0033,-0.0036 -0.0018,0.0011 -0.0023,0.0037 -0.0011,0.0057 0.0032,0.0051 0.0044,0.0045 0.0044,-0.0021 z m 0.04229,-0.02942 c 0.0014,-0.0022 -2e-4,-0.0029 -0.0037,-0.0015 -0.0068,0.0026 -0.008,0.0054 -0.0024,0.0054 0.002,0 0.0047,-0.0017 0.0061,-0.0039 z m 0.04352,-0.02607 c 0.09316,-0.06325 0.173262,-0.119604 0.185024,-0.130178 0.01353,-0.01217 -0.02351,0.01216 -0.148437,0.09747 -0.06975,0.04763 -0.07411,0.05091 -0.06764,0.05091 0.0023,0 0.0163,-0.0082 0.03106,-0.01821 z m -0.198521,-0.134135 c 0.0054,-0.03746 0.009,-0.0734 0.0067,-0.06836 -0.0022,0.0049 -0.0177,0.09662 -0.01754,0.10395 2.93e-4,0.0134 0.0069,-0.0082 0.01087,-0.03559 z m 0.444446,-0.03806 c -0.0027,-0.0027 -0.01012,0.0028 -0.01012,0.0075 0,0.0026 0.0022,0.0023 0.006,-7.87e-4 0.0033,-0.0027 0.0052,-0.0057 0.0042,-0.0067 z m 0.03214,-0.01729 c 0.02702,-0.01829 0.04816,-0.03521 0.04632,-0.03706 -0.0014,-0.0014 -0.06084,0.03731 -0.07081,0.04615 -0.0097,0.0086 0.0082,0.002 0.02449,-0.0091 z M 14.224945,36.95436 c 0.02685,-0.155438 0.03118,-0.18552 0.02571,-0.178647 -0.0015,0.0018 -0.06155,0.351261 -0.06134,0.356771 6.55e-4,0.01737 0.0095,-0.02664 0.03563,-0.178124 z m 0.493775,0.153104 c 0.0014,-0.0022 -1.99e-4,-0.0029 -0.0037,-0.0015 -0.0068,0.0026 -0.008,0.0054 -0.0024,0.0054 0.002,0 0.0047,-0.0017 0.0061,-0.0039 z m 0.02384,-0.01628 0.0074,-0.0084 -0.01074,0.0069 c -0.01108,0.0071 -0.01317,0.0099 -0.0074,0.0099 0.0018,0 0.0067,-0.0038 0.01074,-0.0084 z m 0.04853,-0.03269 c 0.0041,-0.005 0.0039,-0.0055 -0.0015,-0.0035 -0.0035,0.0014 -0.0064,0.004 -0.0064,0.0059 0,0.005 0.0023,0.0043 0.0079,-0.0025 z m 0.142607,-0.09877 c -0.0012,-0.0012 -0.0044,-3e-6 -0.007,0.0027 -0.0038,0.0039 -0.0034,0.0043 0.0022,0.0022 0.0039,-0.0015 0.006,-0.0037 0.0048,-0.0049 z m 0.0336,-0.02322 c 0.0049,-0.0062 0.0047,-0.0063 -0.0015,-0.0015 -0.0038,0.0029 -0.0068,0.006 -0.0068,0.0068 0,0.0032 0.0032,0.0011 0.0083,-0.0054 z m 0.15365,-0.100306 c 0.03,-0.02058 0.05615,-0.0403 0.05812,-0.04382 0.002,-0.0035 -0.0076,0.0015 -0.02134,0.01107 -0.01371,0.0096 -0.04197,0.02922 -0.06281,0.04358 -0.02084,0.01436 -0.03907,0.02802 -0.04051,0.03035 -0.004,0.0065 0.0063,1.64e-4 0.06653,-0.04118 z m -0.864681,-0.08151 c -0.0031,-0.0031 -0.0043,-0.0012 -0.0042,0.0072 1.04e-4,0.0101 6.36e-4,0.01063 0.0043,0.0043 0.003,-0.0052 0.003,-0.0084 -1.19e-4,-0.01152 z m 1.00527,-0.01616 c 0.01578,-0.01167 0.02993,-0.02321 0.03143,-0.02564 0.0038,-0.0061 -0.0014,-0.03126 -0.0064,-0.03126 -0.0023,0 -0.0031,0.0028 -0.0018,0.0062 0.0088,0.02293 0.0085,0.02352 -0.02454,0.04528 -0.0276,0.01818 -0.03696,0.02663 -0.02953,0.02663 0.0012,0 0.01507,-0.0095 0.03086,-0.02122 z m -1.003088,-0.0032 c -0.0011,-0.0027 -0.002,-4.89e-4 -0.002,0.0049 0,0.0054 8.87e-4,0.0076 0.002,0.0049 0.0011,-0.0027 0.0011,-0.0071 0,-0.0098 z m 0.004,-0.01538 c -0.0012,-0.0031 -0.0022,-0.0022 -0.0024,0.0024 -1.7e-4,0.0041 7.54e-4,0.0064 0.0021,0.0051 0.0013,-0.0013 0.0014,-0.0047 3.08e-4,-0.0075 z m 0.0081,-0.04614 c 0,-0.0087 -3.22e-4,-0.0085 -0.003,0.002 -0.0016,0.0064 -0.003,0.01611 -0.003,0.02148 0,0.0087 3.22e-4,0.0085 0.003,-0.002 0.0016,-0.0064 0.003,-0.01611 0.003,-0.02148 z m 1.014387,-0.0049 c -0.0015,-0.0048 -0.0042,-0.01143 -0.006,-0.01465 -0.0029,-0.0052 -0.0033,-0.0052 -0.0034,0 -1.16e-4,0.01039 0.0045,0.02344 0.0084,0.02344 0.002,0 0.0025,-0.004 0.001,-0.0088 z m -1.006502,-0.03809 c -6.5e-5,-0.0088 -3.76e-4,-0.0086 -0.0031,0.002 -0.0016,0.0064 -0.003,0.01523 -0.0031,0.01953 -5.7e-5,0.0061 6.04e-4,0.0057 0.0031,-0.002 0.0017,-0.0054 0.0031,-0.01416 0.0031,-0.01953 z m 0.996946,0.0105 c 0,-0.0043 -0.02476,-0.07291 -0.03662,-0.101475 -0.04171,-0.10047 -0.08732,-0.173697 -0.142978,-0.229572 -0.08444,-0.08476 -0.193242,-0.134752 -0.364548,-0.167484 -0.04101,-0.0078 -0.06064,-0.01 -0.05688,-0.0062 10e-4,0.001 0.02866,0.0072 0.06144,0.01368 0.06625,0.01316 0.113761,0.0258 0.154815,0.0412 0.03785,0.01419 0.105147,0.04821 0.135132,0.06831 0.03651,0.02447 0.09952,0.0897 0.128119,0.132636 0.03842,0.05767 0.08727,0.160511 0.108148,0.227687 0.0038,0.01235 0.0084,0.02246 0.01017,0.02246 0.0018,0 0.0032,-5.49e-4 0.0032,-0.0012 z m -0.993426,-0.03076 c -0.0012,-0.0031 -0.0022,-0.0022 -0.0024,0.0024 -1.69e-4,0.0041 7.54e-4,0.0064 0.0021,0.0051 0.0013,-0.0013 0.0014,-0.0047 3.08e-4,-0.0075 z m 0.0039,-0.02344 c -0.0012,-0.0031 -0.0022,-0.0022 -0.0024,0.0024 -1.7e-4,0.0041 7.53e-4,0.0064 0.0021,0.0051 0.0013,-0.0013 0.0014,-0.0047 3.09e-4,-0.0075 z m 0.0039,-0.02344 c -0.0012,-0.0031 -0.0022,-0.0022 -0.0024,0.0024 -1.7e-4,0.0041 7.53e-4,0.0064 0.0021,0.0051 0.0013,-0.0013 0.0014,-0.0047 3.09e-4,-0.0075 z m 0.0048,-0.02271 c -1.42e-4,-0.0039 -0.0014,-0.0032 -0.0036,0.002 -0.0046,0.01074 -0.0046,0.01691 0,0.0098 0.0021,-0.0032 0.0037,-0.0085 0.0036,-0.01172 z m 0.0042,-0.0139 c 0,-0.0033 -0.0018,-0.005 -0.0039,-0.0037 -0.0021,0.0013 -0.0039,0.0041 -0.0039,0.0061 0,0.002 0.0018,0.0037 0.0039,0.0037 0.0021,0 0.0039,-0.0027 0.0039,-0.0061 z m 0.0039,-0.02172 c 0,-0.0043 -0.0018,-0.0067 -0.0039,-0.0054 -0.0021,0.0013 -0.0039,0.0059 -0.0039,0.01023 0,0.0043 0.0018,0.0067 0.0039,0.0054 0.0021,-0.0013 0.0039,-0.0059 0.0039,-0.01023 z m 0.0039,-0.01493 c 0,-0.002 -0.0018,-0.0048 -0.0039,-0.0061 -0.0021,-0.0013 -0.0039,3.26e-4 -0.0039,0.0037 0,0.0033 0.0018,0.0061 0.0039,0.0061 0.0021,0 0.0039,-0.0017 0.0039,-0.0037 z m -0.0013,-0.02855 c -0.0011,-0.0027 -0.002,-4.88e-4 -0.002,0.0049 0,0.0054 8.87e-4,0.0076 0.002,0.0049 0.0011,-0.0027 0.0011,-0.0071 0,-0.0098 z m 0.0039,-0.02344 c -0.0011,-0.0027 -0.002,-4.89e-4 -0.002,0.0049 0,0.0054 8.87e-4,0.0076 0.002,0.0049 0.0011,-0.0027 0.0011,-0.0071 0,-0.0098 z m 0.0079,-0.04272 c -0.0012,-0.0031 -0.0022,-0.0022 -0.0024,0.0024 -1.7e-4,0.0041 7.53e-4,0.0064 0.0021,0.0051 0.0013,-0.0013 0.0014,-0.0047 3.09e-4,-0.0075 z m 0.0039,-0.02344 c -0.0012,-0.0031 -0.0022,-0.0022 -0.0024,0.0024 -1.7e-4,0.0041 7.53e-4,0.0064 0.0021,0.0051 0.0013,-0.0013 0.0014,-0.0047 3.09e-4,-0.0075 z m 0.0038,-0.02368 c -0.0011,-0.0027 -0.002,-4.88e-4 -0.002,0.0049 0,0.0054 8.87e-4,0.0076 0.002,0.0049 0.0011,-0.0027 0.0011,-0.0071 0,-0.0098 z m 0.004,-0.01929 c -0.0012,-0.0031 -0.0022,-0.0022 -0.0024,0.0024 -1.69e-4,0.0041 7.54e-4,0.0064 0.0021,0.0051 0.0013,-0.0013 0.0014,-0.0047 3.08e-4,-0.0075 z m 0.0039,-0.02344 c -0.0012,-0.0031 -0.0022,-0.0022 -0.0024,0.0024 -1.7e-4,0.0041 7.53e-4,0.0064 0.0021,0.0051 0.0013,-0.0013 0.0014,-0.0047 3.09e-4,-0.0075 z m 0.0038,-0.02368 c -0.0011,-0.0027 -0.002,-4.89e-4 -0.002,0.0049 0,0.0054 8.87e-4,0.0076 0.002,0.0049 0.0011,-0.0027 0.0011,-0.0071 0,-0.0098 z m 0.0039,-0.02344 c -0.0011,-0.0027 -0.002,-4.88e-4 -0.002,0.0049 0,0.0054 8.87e-4,0.0076 0.002,0.0049 0.0011,-0.0027 0.0011,-0.0071 0,-0.0098 z m 0.0039,-0.02344 c -0.0011,-0.0027 -0.002,-4.89e-4 -0.002,0.0049 0,0.0054 8.86e-4,0.0076 0.002,0.0049 0.0011,-0.0027 0.0011,-0.0071 0,-0.0098 z m 0.0039,-0.01953 c -0.0011,-0.0027 -0.002,-4.88e-4 -0.002,0.0049 0,0.0054 8.87e-4,0.0076 0.002,0.0049 0.0011,-0.0027 0.0011,-0.0071 0,-0.0098 z m 0.0039,-0.02344 c -0.0011,-0.0027 -0.002,-4.88e-4 -0.002,0.0049 0,0.0054 8.87e-4,0.0076 0.002,0.0049 0.0011,-0.0027 0.0011,-0.0071 0,-0.0098 z m 0.0087,-0.03148 c -4.37e-4,-0.01546 -6.28e-4,-0.01572 -0.0034,-0.0047 -0.0044,0.01733 -0.0044,0.02616 0,0.02344 0.0021,-0.0013 0.0037,-0.0098 0.0034,-0.01879 z m 0.009,-0.03297 c 0.0012,-0.01023 0.0024,-0.0108 0.02467,-0.01198 0.02486,-0.0013 0.15007,0.0078 0.22384,0.01624 0.02428,0.0028 0.04488,0.0039 0.04576,0.0025 0.0029,-0.0046 -0.140974,-0.01901 -0.252482,-0.0252 -0.04509,-0.0025 -0.04539,-0.0025 -0.0478,0.0065 -0.0035,0.01317 -0.0031,0.02271 0.0011,0.02271 0.002,0 0.0042,-0.0048 0.0049,-0.01074 z"
         id="path18" />
      <path
         style="fill:#000000;stroke:#000000;stroke-width:0.00117188;stroke-linecap:round;stroke-linejoin:round;stroke-dasharray:none;stroke-opacity:1;paint-order:stroke markers fill"
         d="m 13.575132,38.613223 c -0.121321,-0.023 -0.229868,-0.117987 -0.266506,-0.233201 -0.01238,-0.03892 -0.01754,-0.07152 -0.01758,-0.110909 -2.2e-5,-0.02399 0.03163,-0.215187 0.13065,-0.789063 0.165047,-0.956582 0.556245,-3.221972 0.559298,-3.238839 l 0.0023,-0.0127 h 0.353081 c 0.194195,0 0.353081,7.22e-4 0.353081,0.0016 0,0.0025 -0.269247,1.561646 -0.271618,1.572853 l -0.0021,0.01 0.07339,0.0048 c 0.20586,0.01352 0.363535,0.04027 0.488056,0.08282 0.05761,0.01968 0.159884,0.06956 0.206429,0.100667 0.158151,0.105695 0.262997,0.249496 0.35008,0.480153 0.01156,0.03061 0.02189,0.05561 0.02297,0.05555 0.0011,-6e-5 0.165429,-0.111878 0.365234,-0.248484 0.199805,-0.136607 0.593555,-0.405802 0.875,-0.598213 0.650897,-0.444985 0.83422,-0.570754 0.842895,-0.57827 0.0056,-0.0049 0.006,-0.0069 0.002,-0.01081 -0.0028,-0.0026 -0.35393,-0.198524 -0.780395,-0.435327 -0.426465,-0.236802 -0.77706,-0.432084 -0.779101,-0.43396 -0.0021,-0.0019 0.126265,-0.0034 0.298958,-0.0034 h 0.302669 l 0.618792,0.34375 c 0.340335,0.189062 0.620894,0.34375 0.623463,0.34375 0.0026,0 0.01497,-0.0076 0.02756,-0.01694 0.02707,-0.02004 0.02773,-0.02093 0.294104,-0.398094 l 0.192427,-0.272461 h 0.425594 0.425594 l -0.01221,0.01775 c -0.0067,0.0098 -0.184242,0.261567 -0.394503,0.55957 -0.280323,0.397302 -0.389905,0.549639 -0.41083,0.571121 -0.02221,0.02281 -0.06012,0.05087 -0.171114,0.126695 -0.130914,0.08943 -0.980513,0.67033 -1.617187,1.105727 -0.320252,0.219007 -1.97709,1.351851 -2.402344,1.642574 -0.526057,0.359637 -0.492513,0.338231 -0.557133,0.355536 -0.04069,0.0109 -0.109864,0.01353 -0.150938,0.0057 z m 0.620864,-1.144879 c 0.03323,-0.02275 0.05957,-0.0422 0.05854,-0.04323 -10e-4,-10e-4 -0.02856,0.01597 -0.06118,0.03778 -0.03261,0.02181 -0.06011,0.03885 -0.06109,0.03786 -9.87e-4,-9.86e-4 2.19e-4,-0.01336 0.0027,-0.02749 0.0025,-0.01413 0.0037,-0.02796 0.0028,-0.03073 -9.45e-4,-0.0028 -0.0038,0.0073 -0.0063,0.02231 -0.0025,0.01504 -0.0056,0.03244 -0.0069,0.03867 -0.0031,0.01547 -7.1e-4,0.01428 0.07153,-0.03517 z m -0.04181,-0.107422 c 0.01112,-0.06226 0.0177,-0.111029 0.01391,-0.10311 -0.0019,0.0039 -0.02942,0.16084 -0.02942,0.167614 0,0.01408 0.0057,-0.0097 0.01551,-0.0645 z m 0.117303,0.05509 c 0,-0.0021 -0.0017,-0.0039 -0.0037,-0.0039 -0.002,0 -0.0048,0.0018 -0.0061,0.0039 -0.0013,0.0021 3.26e-4,0.0039 0.0037,0.0039 0.0033,0 0.0061,-0.0018 0.0061,-0.0039 z m 0.02149,-0.01563 c 0.0013,-0.0021 5.52e-4,-0.0039 -0.0017,-0.0039 -0.0023,0 -0.0041,0.0018 -0.0041,0.0039 0,0.0021 7.76e-4,0.0039 0.0017,0.0039 9.47e-4,0 0.0028,-0.0018 0.0041,-0.0039 z m 0.04492,-0.03113 c 0,-0.0021 -0.0026,-0.0028 -0.0059,-0.0015 -0.0032,0.0012 -0.0059,0.0029 -0.0059,0.0038 0,8.44e-4 0.0026,0.0015 0.0059,0.0015 0.0032,0 0.0059,-0.0017 0.0059,-0.0038 z m 0.110211,-0.07336 c 0.0914,-0.06253 0.138977,-0.09733 0.110492,-0.08082 -0.01346,0.0078 -0.205136,0.137735 -0.210742,0.142859 -0.0023,0.0021 -0.0021,0.0034 4.49e-4,0.0034 0.0023,0 0.0472,-0.02944 0.0998,-0.06543 z m -0.266523,-0.09436 c 0.0045,-0.02657 0.0077,-0.05114 0.0069,-0.05461 -0.0013,-0.0064 -0.0186,0.0857 -0.0186,0.09907 0,0.01604 0.0038,0.0015 0.01166,-0.04446 z m 0.443775,-0.03061 c -0.0027,-0.0027 -0.01012,0.0028 -0.01012,0.0075 0,0.0026 0.0022,0.0023 0.006,-7.87e-4 0.0033,-0.0027 0.0052,-0.0057 0.0042,-0.0067 z m 0.04549,-0.0274 c 0.0289,-0.02013 0.04842,-0.03838 0.02432,-0.02273 -0.04636,0.0301 -0.0643,0.04294 -0.0643,0.04603 0,0.0043 0.002,0.0032 0.03999,-0.0233 z M 14.224498,36.95452 c 0.02711,-0.156193 0.03141,-0.185523 0.0262,-0.178805 -0.002,0.0026 -0.06143,0.352482 -0.061,0.35905 8.42e-4,0.01287 0.0052,-0.0098 0.03481,-0.180245 z m 0.496211,0.152901 c 0,-0.0021 -7.75e-4,-0.0039 -0.0017,-0.0039 -9.48e-4,0 -0.0028,0.0018 -0.0041,0.0039 -0.0013,0.0021 -5.53e-4,0.0039 0.0017,0.0039 0.0023,0 0.0041,-0.0018 0.0041,-0.0039 z m 0.02398,-0.0155 c 0.012,-0.01 0.0044,-0.01012 -0.0084,-1.3e-4 -0.0054,0.0042 -0.0078,0.0077 -0.0053,0.0077 0.0024,4.8e-5 0.0086,-0.0034 0.01367,-0.0076 z m 0.05024,-0.03618 c 0,-0.0023 -0.0025,-0.0019 -0.0059,8.97e-4 -0.0032,0.0027 -0.0059,0.0055 -0.0059,0.0062 0,7.43e-4 0.0026,3.4e-4 0.0059,-8.97e-4 0.0032,-0.0012 0.0059,-0.004 0.0059,-0.0062 z m 0.138672,-0.09285 c 0.0013,-0.0021 6.56e-4,-0.0039 -0.0015,-0.0039 -0.0021,0 -0.005,0.0018 -0.0063,0.0039 -0.0013,0.0021 -6.56e-4,0.0039 0.0015,0.0039 0.0021,0 0.005,-0.0018 0.0063,-0.0039 z m 0.03532,-0.0237 c 0.0042,-0.0068 -5.84e-4,-0.0082 -0.0059,-0.0018 -0.0031,0.0037 -0.0034,0.006 -7.87e-4,0.006 0.0023,0 0.0053,-0.0019 0.0067,-0.0042 z m 0.153256,-0.10448 c 0.03282,-0.02249 0.05885,-0.04171 0.05786,-0.04271 -0.0022,-0.0022 -0.121817,0.07925 -0.125738,0.08559 -0.0038,0.0061 -0.0014,0.0046 0.06788,-0.04289 z m -0.862461,-0.07811 c 3.3e-5,-0.0028 -0.0017,-0.004 -0.0038,-0.0027 -0.0021,0.0013 -0.0039,0.0063 -0.0038,0.01097 4.9e-5,0.007 7.68e-4,0.0075 0.0038,0.0027 0.0021,-0.0032 0.0038,-0.0082 0.0038,-0.01097 z m -0.0013,-0.02125 c -0.0011,-0.0027 -0.002,-4.89e-4 -0.002,0.0049 0,0.0054 8.87e-4,0.0076 0.002,0.0049 0.0011,-0.0027 0.0011,-0.0071 0,-0.0098 z m 1.001261,0.0051 c 0.0053,-0.0041 0.0088,-0.0084 0.0077,-0.0095 -0.0011,-0.0011 -0.0073,0.0022 -0.01361,0.0074 -0.01361,0.01112 -0.0083,0.01301 0.006,0.0021 z m -0.997273,-0.02044 c -0.0012,-0.0031 -0.0022,-0.0022 -0.0024,0.0024 -1.7e-4,0.0041 7.54e-4,0.0064 0.0021,0.0051 0.0013,-0.0013 0.0014,-0.0047 3.08e-4,-0.0075 z m 1.024971,-0.0018 0.0095,-0.01038 -0.0127,0.0092 c -0.01321,0.0095 -0.01489,0.0116 -0.0095,0.0116 0.0018,0 0.0075,-0.0047 0.01269,-0.01038 z m -1.021026,-0.02763 c -9.91e-4,-0.0038 -0.0019,-0.0016 -0.0019,0.0048 -7.9e-5,0.0064 7.31e-4,0.0096 0.0018,0.0069 0.0011,-0.0026 0.0011,-0.0079 1.45e-4,-0.01172 z m 1.023563,-0.0011 c -3.24e-4,-0.0043 -0.002,-0.0078 -0.0037,-0.0078 -0.0037,0 -0.0038,0.0014 -7.04e-4,0.0094 0.0032,0.0084 0.0051,0.0078 0.0044,-0.0016 z m -1.019777,-0.02051 c -0.0011,-0.0027 -0.002,-4.88e-4 -0.002,0.0049 0,0.0054 8.87e-4,0.0076 0.002,0.0049 0.0011,-0.0027 0.0011,-0.0071 0,-0.0098 z m 1.011547,-0.0055 c -0.007,-0.01285 -0.0081,-0.01044 -0.0023,0.0048 0.0022,0.0058 0.005,0.0096 0.0062,0.0084 0.0012,-0.0012 -5.54e-4,-0.0071 -0.0039,-0.01324 z m -1.007641,-0.01792 c -0.0011,-0.0027 -0.002,-4.88e-4 -0.002,0.0049 0,0.0054 8.87e-4,0.0076 0.002,0.0049 0.0011,-0.0027 0.0011,-0.0071 0,-0.0098 z m 0.004,-0.01538 c -0.0012,-0.0031 -0.0022,-0.0022 -0.0024,0.0024 -1.7e-4,0.0041 7.54e-4,0.0064 0.0021,0.0051 0.0013,-0.0013 0.0014,-0.0047 3.08e-4,-0.0075 z m 0.01172,-0.06641 c -0.0012,-0.0031 -0.0022,-0.0022 -0.0024,0.0024 -1.7e-4,0.0041 7.53e-4,0.0064 0.0021,0.0051 0.0013,-0.0013 0.0014,-0.0047 3.09e-4,-0.0075 z m 0.01018,-0.05396 c 0.0011,-0.0043 4.51e-4,-0.0068 -0.0015,-0.0056 -0.0019,0.0012 -0.0035,0.0047 -0.0035,0.0078 0,0.0081 0.0027,0.0069 0.005,-0.0022 z m 0.912545,-0.02799 c -0.0069,-0.0136 -0.01325,-0.02268 -0.01411,-0.02017 -8.62e-4,0.0025 0.0041,0.01569 0.01097,0.0293 0.0069,0.0136 0.01325,0.02268 0.01411,0.02017 8.62e-4,-0.0025 -0.0041,-0.01569 -0.01097,-0.0293 z m -0.907103,-0.0157 c -0.0012,-0.0031 -0.0022,-0.0022 -0.0024,0.0024 -1.7e-4,0.0041 7.53e-4,0.0064 0.0021,0.0051 0.0013,-0.0013 0.0014,-0.0047 3.09e-4,-0.0075 z m 0.870475,-0.05205 c -0.01717,-0.02755 -0.0255,-0.0375 -0.02548,-0.03046 5e-6,0.0017 0.0078,0.01499 0.01729,0.02945 0.0095,0.01446 0.01863,0.03028 0.02028,0.03516 0.0025,0.0075 0.0032,0.0078 0.0045,0.0019 8.33e-4,-0.0038 -0.0066,-0.02006 -0.0166,-0.03604 z m -0.866569,0.02861 c -0.0012,-0.0031 -0.0022,-0.0022 -0.0024,0.0024 -1.7e-4,0.0041 7.54e-4,0.0064 0.0021,0.0051 0.0013,-0.0013 0.0014,-0.0047 3.08e-4,-0.0075 z m 0.83707,-0.07251 c -5.8e-5,-0.0016 -0.0053,-0.0091 -0.01161,-0.0166 -0.0133,-0.0158 -0.01591,-0.0093 -0.0032,0.008 0.0081,0.01098 0.01501,0.01501 0.01478,0.0086 z m -0.821445,-0.01733 c -0.0012,-0.0031 -0.0022,-0.0022 -0.0024,0.0024 -1.7e-4,0.0041 7.54e-4,0.0064 0.0021,0.0051 0.0013,-0.0013 0.0014,-0.0047 3.08e-4,-0.0075 z m 0.0039,-0.02344 c -0.0012,-0.0031 -0.0022,-0.0022 -0.0024,0.0024 -1.69e-4,0.0041 7.54e-4,0.0064 0.0021,0.0051 0.0013,-0.0013 0.0014,-0.0047 3.08e-4,-0.0075 z m 0.786394,7.32e-4 c 0,-0.0021 -0.0019,-0.0039 -0.0041,-0.0039 -0.0023,0 -0.0031,0.0018 -0.0017,0.0039 0.0013,0.0021 0.0032,0.0039 0.0041,0.0039 9.47e-4,0 0.0017,-0.0018 0.0017,-0.0039 z m -0.01131,-0.01288 c -0.005,-0.005 -0.0101,-0.0011 -0.0064,0.0049 0.0014,0.0023 0.0044,0.0031 0.0066,0.0018 0.0027,-0.0016 0.0026,-0.0038 -2.05e-4,-0.0066 z m -0.771174,-0.01129 c -0.0012,-0.0031 -0.0022,-0.0022 -0.0024,0.0024 -1.7e-4,0.0041 7.53e-4,0.0064 0.0021,0.0051 0.0013,-0.0013 0.0014,-0.0047 3.09e-4,-0.0075 z m 0.761399,0.0037 c 0.0015,-0.0027 0.0014,-0.0036 -2.35e-4,-0.0021 -0.003,0.0027 -0.01383,-0.0056 -0.01383,-0.01053 0,-0.0079 -0.08008,-0.06448 -0.09131,-0.06448 -0.005,0 6.04e-4,0.0051 0.01536,0.01396 0.02796,0.01682 0.05813,0.03977 0.07374,0.05608 0.01319,0.01378 0.01258,0.01352 0.01627,0.0071 z m -0.757493,-0.02319 c -0.0012,-0.0031 -0.0022,-0.0022 -0.0024,0.0024 -1.7e-4,0.0041 7.53e-4,0.0064 0.0021,0.0051 0.0013,-0.0013 0.0014,-0.0047 3.09e-4,-0.0075 z m 0.0039,-0.02344 c -0.0012,-0.0031 -0.0022,-0.0022 -0.0024,0.0024 -1.7e-4,0.0041 7.54e-4,0.0064 0.0021,0.0051 0.0013,-0.0013 0.0014,-0.0047 3.08e-4,-0.0075 z m 0.0039,-0.02344 c -0.0012,-0.0031 -0.0022,-0.0022 -0.0024,0.0024 -1.69e-4,0.0041 7.54e-4,0.0064 0.0021,0.0051 0.0013,-0.0013 0.0014,-0.0047 3.08e-4,-0.0075 z m 0.0039,-0.01953 c -0.0012,-0.0031 -0.0022,-0.0022 -0.0024,0.0024 -1.7e-4,0.0041 7.53e-4,0.0064 0.0021,0.0051 0.0013,-0.0013 0.0014,-0.0047 3.09e-4,-0.0075 z m 0.622331,-0.0013 c -0.02433,-0.01307 -0.09797,-0.04197 -0.100499,-0.03944 -0.0011,0.0011 0.0021,0.0039 0.0072,0.0061 0.0051,0.0022 0.02951,0.01276 0.05422,0.02349 0.0471,0.02045 0.06907,0.02602 0.03906,0.0099 z m -0.618425,-0.02219 c -0.0012,-0.0031 -0.0022,-0.0022 -0.0024,0.0024 -1.7e-4,0.0041 7.53e-4,0.0064 0.0021,0.0051 0.0013,-0.0013 0.0014,-0.0047 3.09e-4,-0.0075 z m 0.0087,-0.03368 c -3.5e-4,-0.01295 -7.08e-4,-0.01342 -0.0035,-0.0047 -0.0045,0.01411 -0.0045,0.02428 0,0.02148 0.0021,-0.0013 0.0037,-0.0089 0.0035,-0.01683 z m 0.492251,0.0095 c -8.95e-4,-8.07e-4 -0.006,-0.0026 -0.01139,-0.0041 l -0.0098,-0.0026 0.0098,0.0057 c 0.0083,0.0048 0.01647,0.0055 0.0114,9.68e-4 z m -0.04264,-0.0097 c 0,-0.0053 -0.130912,-0.03106 -0.135378,-0.02659 -0.0012,0.0012 0.0046,0.0033 0.01291,0.0048 0.0083,0.0015 0.0379,0.0075 0.06583,0.01342 0.02793,0.0059 0.0521,0.01099 0.05371,0.01126 0.0016,2.78e-4 0.0029,-0.001 0.0029,-0.0029 z m -0.442618,-0.03597 c -0.0025,-0.0096 0.0084,-0.01302 0.03832,-0.0121 0.03238,9.89e-4 0.169834,0.01211 0.203125,0.01643 0.03015,0.0039 0.05507,0.0048 0.05216,0.0019 -0.0027,-0.0027 -0.146742,-0.01683 -0.214505,-0.02109 -0.05843,-0.0037 -0.0777,-0.0025 -0.08271,0.005 -0.0046,0.0069 -0.0036,0.0227 0.0013,0.01971 0.0023,-0.0014 0.0034,-0.0059 0.0024,-0.0099 z"
         id="path35" />
      <path
         style="fill:#000000;stroke:#000000;stroke-width:0.00117188;stroke-linecap:round;stroke-linejoin:round;stroke-dasharray:none;stroke-opacity:1;paint-order:stroke markers fill"
         d="m 13.583324,38.615144 c -0.127445,-0.02151 -0.236576,-0.115709 -0.275938,-0.238191 -0.02232,-0.06944 -0.02183,-0.106474 0.0034,-0.253756 0.03106,-0.181619 0.170884,-0.991935 0.431266,-2.49933 0.132224,-0.765467 0.240407,-1.392566 0.240407,-1.393555 0,-9.88e-4 0.159082,-0.0018 0.353516,-0.0018 0.194433,0 0.353515,9.47e-4 0.353515,0.0021 0,0.0037 -0.269926,1.565925 -0.272145,1.575042 -0.002,0.0082 -8.93e-4,0.0088 0.01741,0.0088 0.03221,0 0.166293,0.01134 0.235209,0.01989 0.121103,0.01503 0.223469,0.0373 0.3125,0.06799 0.05286,0.01822 0.156184,0.06881 0.201172,0.09849 0.151814,0.100174 0.259855,0.245973 0.343746,0.463878 0.01403,0.03645 0.0268,0.06751 0.02838,0.06902 0.0027,0.0026 0.151853,-0.09883 1.409121,-0.958712 0.592693,-0.405361 0.669238,-0.457989 0.677177,-0.465592 0.0044,-0.0042 7.86e-4,-0.0077 -0.02148,-0.02066 -0.01473,-0.0086 -0.366045,-0.204052 -0.780693,-0.434407 -0.414649,-0.230355 -0.755576,-0.420407 -0.757617,-0.422338 -0.0022,-0.0021 0.119839,-0.0035 0.299137,-0.0035 h 0.302849 l 0.609066,0.338316 c 0.334985,0.186074 0.614571,0.340989 0.6213,0.344254 0.01183,0.0057 0.01287,0.0055 0.03125,-0.0071 0.03409,-0.02329 0.02362,-0.0093 0.302041,-0.404034 0.101525,-0.143945 0.186675,-0.263924 0.189221,-0.266619 0.0037,-0.0039 0.09279,-0.0047 0.429312,-0.0039 l 0.424683,9.94e-4 -0.242739,0.34375 c -0.488855,0.692284 -0.544064,0.76995 -0.562877,0.791834 -0.02929,0.03408 0.03654,-0.01201 -0.794064,0.555836 -0.191211,0.130721 -0.533105,0.364521 -0.759765,0.519555 -0.454945,0.311179 -2.50738,1.714476 -2.822266,1.929648 -0.280942,0.191977 -0.309071,0.210249 -0.344998,0.224104 -0.05413,0.02087 -0.127598,0.02897 -0.181053,0.01995 z m 0.557117,-1.109912 c 0.0055,-0.0025 0.01,-0.006 0.01,-0.0078 0,-0.0047 -0.0055,-0.004 -0.01087,0.0013 -0.0079,0.0079 -0.0091,0.0012 -0.0048,-0.02611 0.0055,-0.03469 0.0023,-0.03733 -0.0038,-0.0031 -0.0026,0.0146 -0.0056,0.02962 -0.0066,0.03338 -0.0022,0.008 0.0022,0.0086 0.01605,0.0023 z m 0.111512,-0.07861 c 0,-0.0018 -0.0053,4.25e-4 -0.01172,0.005 -0.0064,0.0046 -0.01172,0.0092 -0.01172,0.01025 0,0.001 0.0053,-0.0012 0.01172,-0.005 0.0064,-0.0038 0.01172,-0.0084 0.01172,-0.01025 z m -0.110694,-0.01159 c -0.0011,-0.0027 -0.002,-4.88e-4 -0.002,0.0049 0,0.0054 8.86e-4,0.0076 0.002,0.0049 0.0011,-0.0027 0.0011,-0.0071 0,-0.0098 z m 0.128272,9.77e-4 c 0.0013,-0.0021 6.57e-4,-0.0039 -0.0015,-0.0039 -0.0021,0 -0.005,0.0018 -0.0063,0.0039 -0.0013,0.0021 -6.57e-4,0.0039 0.0015,0.0039 0.0021,0 0.005,-0.0018 0.0063,-0.0039 z m -0.124366,-0.02051 c -0.0011,-0.0027 -0.002,-4.88e-4 -0.002,0.0049 0,0.0054 8.87e-4,0.0076 0.002,0.0049 0.0011,-0.0027 0.0011,-0.0071 0,-0.0098 z m 0.147804,0.0049 c 0.0013,-0.0021 5.52e-4,-0.0039 -0.0017,-0.0039 -0.0023,0 -0.0041,0.0018 -0.0041,0.0039 0,0.0021 7.76e-4,0.0039 0.0017,0.0039 9.47e-4,0 0.0028,-0.0018 0.0041,-0.0039 z m -0.143778,-0.0302 c -9.9e-4,-0.0038 -0.0019,-0.0016 -0.0019,0.0048 -8e-5,0.0064 7.31e-4,0.0096 0.0018,0.0069 0.0011,-0.0026 0.0011,-0.0079 1.44e-4,-0.01172 z m 0.01272,-0.05557 c 0.0079,-0.04395 0.0095,-0.05771 0.0064,-0.05453 -0.0017,0.0018 -0.01793,0.09008 -0.01793,0.0978 0,0.01299 0.0043,-0.0031 0.01152,-0.04327 z m 0.242887,0.0086 c 0.0049,-0.0062 0.0047,-0.0063 -0.0015,-0.0015 -0.0038,0.0029 -0.0068,0.006 -0.0068,0.0068 0,0.0032 0.0032,0.0011 0.0083,-0.0054 z m 0.08984,-0.0625 c 0.0049,-0.0062 0.0047,-0.0063 -0.0015,-0.0015 -0.0038,0.0029 -0.0068,0.006 -0.0068,0.0068 0,0.0032 0.0032,0.0011 0.0083,-0.0054 z m -0.32201,-0.02727 c -9.91e-4,-0.0038 -0.0019,-0.0016 -0.0019,0.0048 -7.9e-5,0.0064 7.31e-4,0.0096 0.0018,0.0069 0.0011,-0.0026 0.0011,-0.0079 1.45e-4,-0.01172 z m 0.385965,-0.0143 c 0.0043,-0.0033 0.0065,-0.0061 0.0048,-0.0062 -0.0034,-1.41e-4 -0.0341,0.01963 -0.0341,0.02198 0,0.0022 0.01996,-0.0086 0.0293,-0.01582 z m -0.382179,-0.0073 c -0.0011,-0.0027 -0.002,-4.88e-4 -0.002,0.0049 0,0.0054 8.87e-4,0.0076 0.002,0.0049 0.0011,-0.0027 0.0011,-0.0071 0,-0.0098 z m 0.0039,-0.01953 c -0.0011,-0.0027 -0.002,-4.88e-4 -0.002,0.0049 0,0.0054 8.87e-4,0.0076 0.002,0.0049 0.0011,-0.0027 0.0011,-0.0071 0,-0.0098 z m 0.004,-0.02532 c -9.91e-4,-0.0038 -0.0019,-0.0016 -0.0019,0.0048 -7.9e-5,0.0064 7.31e-4,0.0096 0.0018,0.0069 0.0011,-0.0026 0.0011,-0.0079 1.45e-4,-0.01172 z m 0.440652,0.0068 c 0.0013,-0.0021 6.56e-4,-0.0039 -0.0015,-0.0039 -0.0021,0 -0.005,0.0018 -0.0063,0.0039 -0.0013,0.0021 -6.57e-4,0.0039 0.0015,0.0039 0.0021,0 0.005,-0.0018 0.0063,-0.0039 z m 0.0413,-0.02767 c 0.03052,-0.02088 0.04797,-0.03561 0.03292,-0.02777 -0.01469,0.0076 -0.07011,0.04763 -0.06602,0.04763 0.0022,0 0.01714,-0.0089 0.0331,-0.01985 z m -0.478082,0.0035 c -0.0012,-0.0031 -0.0022,-0.0022 -0.0024,0.0024 -1.69e-4,0.0041 7.54e-4,0.0064 0.0021,0.0051 0.0013,-0.0013 0.0014,-0.0047 3.08e-4,-0.0075 z m 0.0038,-0.02759 c -0.0011,-0.0027 -0.002,-4.88e-4 -0.002,0.0049 0,0.0054 8.87e-4,0.0076 0.002,0.0049 0.0011,-0.0027 0.0011,-0.0071 0,-0.0098 z m 0.004,-0.02141 c -9.9e-4,-0.0038 -0.0019,-0.0016 -0.0019,0.0048 -8e-5,0.0064 7.31e-4,0.0096 0.0018,0.0069 0.0011,-0.0026 0.0011,-0.0079 1.44e-4,-0.01172 z m 0.524637,0.0068 c 0,-0.0021 -7.75e-4,-0.0039 -0.0017,-0.0039 -9.48e-4,0 -0.0028,0.0018 -0.0041,0.0039 -0.0013,0.0021 -5.53e-4,0.0039 0.0017,0.0039 0.0023,0 0.0041,-0.0018 0.0041,-0.0039 z m 0.02126,-0.0138 c 0.0042,-0.0032 0.0059,-0.0057 0.0039,-0.0056 -0.002,6.8e-5 -0.0071,0.0027 -0.01126,0.0059 -0.0042,0.0032 -0.0059,0.0057 -0.0039,0.0056 0.002,-6.8e-5 0.0071,-0.0027 0.01126,-0.0059 z m -0.542105,-0.01452 c -0.0011,-0.0027 -0.002,-4.89e-4 -0.002,0.0049 0,0.0054 8.87e-4,0.0076 0.002,0.0049 0.0011,-0.0027 0.0011,-0.0071 0,-0.0098 z m 0.004,-0.02532 c -9.91e-4,-0.0038 -0.0019,-0.0016 -0.0019,0.0048 -7.9e-5,0.0064 7.31e-4,0.0096 0.0018,0.0069 0.0011,-0.0026 0.0011,-0.0079 1.45e-4,-0.01172 z m 0.591043,0.002 c 0,-0.0023 -0.0025,-0.0019 -0.0059,8.97e-4 -0.0032,0.0027 -0.0059,0.0055 -0.0059,0.0062 0,7.43e-4 0.0026,3.4e-4 0.0059,-8.97e-4 0.0032,-0.0012 0.0059,-0.004 0.0059,-0.0062 z m -0.587137,-0.0254 c -9.9e-4,-0.0038 -0.0019,-0.0016 -0.0019,0.0048 -8e-5,0.0064 7.3e-4,0.0096 0.0018,0.0069 0.0011,-0.0026 0.0011,-0.0079 1.45e-4,-0.01172 z m 0.0039,-0.02344 c -9.9e-4,-0.0038 -0.0019,-0.0016 -0.0019,0.0048 -8e-5,0.0064 7.31e-4,0.0096 0.0018,0.0069 0.0011,-0.0026 0.0011,-0.0079 1.44e-4,-0.01172 z m 0.0039,-0.01741 c -0.0012,-0.0031 -0.0022,-0.0022 -0.0024,0.0024 -1.7e-4,0.0041 7.54e-4,0.0064 0.0021,0.0051 0.0013,-0.0013 0.0014,-0.0047 3.08e-4,-0.0075 z m 0.0038,-0.02368 c -0.0011,-0.0027 -0.002,-4.88e-4 -0.002,0.0049 0,0.0054 8.86e-4,0.0076 0.002,0.0049 0.0011,-0.0027 0.0011,-0.0071 0,-0.0098 z m 0.004,-0.02532 c -9.9e-4,-0.0038 -0.0019,-0.0016 -0.0019,0.0048 -8e-5,0.0064 7.3e-4,0.0096 0.0018,0.0069 0.0011,-0.0026 0.0011,-0.0079 1.45e-4,-0.01172 z m 0.0038,-0.02156 c -0.0011,-0.0027 -0.002,-4.88e-4 -0.002,0.0049 0,0.0054 8.87e-4,0.0076 0.002,0.0049 0.0011,-0.0027 0.0011,-0.0071 0,-0.0098 z m 0.0039,-0.02344 c -0.0011,-0.0027 -0.002,-4.88e-4 -0.002,0.0049 0,0.0054 8.87e-4,0.0076 0.002,0.0049 0.0011,-0.0027 0.0011,-0.0071 0,-0.0098 z m 0.01337,-0.05957 c 0.0043,-0.02527 0.0073,-0.04879 0.0065,-0.05227 -7.23e-4,-0.0035 -0.0045,0.01302 -0.0084,0.03665 -0.0039,0.02363 -0.008,0.04824 -0.0092,0.05469 -0.0012,0.0064 -9.43e-4,0.01063 5.17e-4,0.0093 0.0015,-0.0013 0.0062,-0.0231 0.01051,-0.04837 z m 0.855141,0.01116 c 0,-0.0031 -0.0207,0.0102 -0.03516,0.02256 -0.0097,0.0083 -0.0066,0.007 0.01074,-0.0045 0.01343,-0.0089 0.02441,-0.01703 0.02441,-0.01804 z m 0.02344,-0.01565 c 0,-0.0028 -0.01506,0.0063 -0.01784,0.01078 -0.0015,0.0024 0.002,0.0013 0.0076,-0.0024 0.0056,-0.0037 0.01025,-0.0075 0.01025,-0.0084 z m 0.03418,-0.02174 c 0.01128,-0.0083 0.02051,-0.01591 0.02051,-0.017 0,-0.003 -0.04597,0.02884 -0.04919,0.03406 -0.0036,0.0058 0.0021,0.0024 0.02868,-0.01706 z m -0.900236,-0.04603 c 0.0011,-0.0043 4.5e-4,-0.0078 -0.0015,-0.0078 -0.0019,0 -0.0035,0.0035 -0.0035,0.0078 0,0.0043 6.74e-4,0.0078 0.0015,0.0078 8.23e-4,0 0.0024,-0.0035 0.0035,-0.0078 z m 0.999367,-0.02212 c 0.0049,-0.0059 0.0045,-0.0061 -0.0034,-0.0018 -0.0091,0.0048 -0.01133,0.0083 -0.0054,0.0083 0.0019,0 0.0058,-0.0029 0.0088,-0.0065 z m -0.990018,-0.04892 c -0.0012,-0.0031 -0.0022,-0.0022 -0.0024,0.0024 -1.69e-4,0.0041 7.54e-4,0.0064 0.0021,0.0051 0.0013,-0.0013 0.0014,-0.0047 3.08e-4,-0.0075 z m 1.023113,-0.0055 c -0.0014,-0.0036 -0.0034,-0.0057 -0.0045,-0.0046 -0.0011,0.0011 -8.15e-4,0.0049 5.75e-4,0.0085 0.0014,0.0036 0.0034,0.0057 0.0045,0.0046 0.0011,-0.0011 8.15e-4,-0.0049 -5.75e-4,-0.0085 z m -1.019206,-0.01401 c -0.0012,-0.0031 -0.0022,-0.0022 -0.0024,0.0024 -1.7e-4,0.0041 7.53e-4,0.0064 0.0021,0.0051 0.0013,-0.0013 0.0014,-0.0047 3.09e-4,-0.0075 z m 1.011465,-0.0097 c -0.007,-0.01285 -0.0081,-0.01044 -0.0023,0.0048 0.0022,0.0058 0.005,0.0096 0.0062,0.0084 0.0012,-0.0012 -5.54e-4,-0.0071 -0.0039,-0.01324 z M 14.302561,36.50469 c 3.2e-5,-0.0017 -0.0017,-0.0021 -0.0038,-7.46e-4 -0.0021,0.0013 -0.0039,0.0054 -0.0038,0.009 5.1e-5,0.0057 5.83e-4,0.0058 0.0038,7.46e-4 0.0021,-0.0032 0.0038,-0.0073 0.0038,-0.009 z m 0.914533,-0.01155 c -0.0097,-0.0151 -0.01095,-0.0077 -0.0017,0.01002 0.0036,0.007 0.0072,0.01033 0.0082,0.0076 9.18e-4,-0.0027 -0.002,-0.01063 -0.0064,-0.01758 z m -0.01469,-0.02843 c -0.0013,-0.0033 -0.0032,-0.0052 -0.0042,-0.0042 -0.001,10e-4 -7.03e-4,0.0037 7.13e-4,0.006 0.0039,0.0062 0.0061,0.005 0.0035,-0.0019 z m -0.01172,-0.01953 c -0.0013,-0.0033 -0.0032,-0.0052 -0.0042,-0.0042 -10e-4,10e-4 -7.03e-4,0.0037 7.13e-4,0.006 0.0039,0.0062 0.0061,0.005 0.0035,-0.0019 z m -0.0078,-0.01563 c -0.0013,-0.0033 -0.0032,-0.0052 -0.0042,-0.0042 -0.001,10e-4 -7.03e-4,0.0037 7.13e-4,0.006 0.0039,0.0062 0.0061,0.005 0.0035,-0.0019 z m -0.01258,-0.01845 c -0.0039,-0.0038 -0.0043,-0.0034 -0.0022,0.0022 0.0015,0.0039 0.0037,0.006 0.0049,0.0048 0.0012,-0.0012 2e-6,-0.0044 -0.0027,-0.007 z m -0.01044,-0.01885 c -0.0034,-0.0066 -0.0071,-0.01119 -0.0082,-0.0101 -0.002,0.002 0.0098,0.02219 0.01287,0.02219 8.82e-4,0 -0.0012,-0.0054 -0.0046,-0.01208 z m -0.01739,-0.02656 c 0,-0.0019 -0.0029,-0.0046 -0.0064,-0.0059 -0.0054,-0.0021 -0.0056,-0.0015 -0.0015,0.0035 0.0056,0.0068 0.0079,0.0075 0.0079,0.0025 z m -0.02734,-0.03339 c 0,-9.48e-4 -0.0018,-0.0028 -0.0039,-0.0041 -0.0021,-0.0013 -0.0039,-5.53e-4 -0.0039,0.0017 0,0.0023 0.0018,0.0041 0.0039,0.0041 0.0021,0 0.0039,-7.75e-4 0.0039,-0.0017 z m -0.01172,-0.01172 c 0,-9.47e-4 -0.0018,-0.0028 -0.0039,-0.0041 -0.0021,-0.0013 -0.0039,-5.52e-4 -0.0039,0.0017 0,0.0023 0.0018,0.0041 0.0039,0.0041 0.0021,0 0.0039,-7.76e-4 0.0039,-0.0017 z m -0.01961,-0.01985 c -0.0028,-0.0034 -0.01052,-0.0099 -0.01716,-0.0144 -0.01092,-0.0075 -0.01061,-0.0067 0.0033,0.0079 0.0085,0.0089 0.01617,0.01538 0.01716,0.0144 9.83e-4,-9.82e-4 -5.05e-4,-0.0045 -0.0033,-0.0079 z m -0.0468,-0.03459 c 0,-8.11e-4 -0.0031,-0.0039 -0.0068,-0.0068 -0.0062,-0.0049 -0.0063,-0.0047 -0.0015,0.0015 0.0051,0.0065 0.0083,0.0086 0.0083,0.0054 z m -0.03906,-0.0274 c 0,-8.44e-4 -0.0027,-0.0026 -0.0061,-0.0039 -0.0035,-0.0013 -0.005,-6.79e-4 -0.0037,0.0015 0.0023,0.0037 0.0097,0.0055 0.0097,0.0023 z m -0.03125,-0.01921 c -0.0097,-0.0047 -0.01817,-0.0099 -0.01889,-0.0115 -7.21e-4,-0.0016 -0.0032,-0.0018 -0.0055,-3.8e-4 -0.0046,0.0028 0.0267,0.0206 0.03608,0.02049 0.0032,-3.6e-5 -0.0021,-0.0039 -0.01172,-0.0086 z m -0.04297,-0.02039 c 0,-0.0035 -0.01735,-0.0089 -0.02123,-0.0066 -0.002,0.0012 -2.48e-4,0.0035 0.0039,0.0051 0.0092,0.0036 0.01732,0.0043 0.01732,0.0014 z M 14.36089,36.16216 c -1.97e-4,-0.0089 -4.98e-4,-0.0091 -0.0036,-0.002 -0.0018,0.0043 -0.0035,0.01133 -0.0036,0.01563 -1.77e-4,0.0064 4.47e-4,0.0068 0.0036,0.002 0.0021,-0.0032 0.0037,-0.01025 0.0036,-0.01563 z m 0.494279,0.01222 c -0.002,-0.0019 -0.009,-0.0044 -0.01543,-0.0057 l -0.01172,-0.0023 0.01172,0.0055 c 0.01354,0.0064 0.021,0.0076 0.01543,0.0025 z m -0.08965,-0.02375 c -0.03673,-0.0091 -0.05664,-0.01205 -0.05664,-0.0084 0,0.0034 0.05468,0.01479 0.07227,0.01504 0.0066,9.1e-5 -3.32e-4,-0.0028 -0.01563,-0.0066 z m -0.395114,-0.03236 c 0.0025,-0.0016 0.0093,-0.0029 0.01523,-0.0029 0.0059,-3.3e-5 0.01074,-0.002 0.01074,-0.0045 0,-0.006 -0.02762,-0.0014 -0.03185,0.0053 -0.0018,0.0028 -0.003,0.0094 -0.0027,0.01479 l 4.72e-4,0.0098 0.0018,-0.0098 c 9.98e-4,-0.0054 0.0038,-0.01106 0.0063,-0.01264 z m 0.240817,0.0087 c -0.01396,-0.0045 -0.01953,-0.0045 -0.01953,0 0,0.0021 0.0066,0.0037 0.01465,0.0035 0.01307,-3.48e-4 0.0136,-7.26e-4 0.0049,-0.0035 z m -0.144531,-0.0095 c 0,-0.0041 -0.0075,-0.0059 -0.0097,-0.0022 -0.0013,0.0022 2.87e-4,0.004 0.0036,0.004 0.0033,0 0.0061,-7.76e-4 0.0061,-0.0017 z"
         id="path36" />
    </g>
  </g>
</svg>
