<?xml version="1.0" encoding="utf-8"?>
<!-- Generator: Adobe Illustrator 24.0.2, SVG Export Plug-In . SVG Version: 6.00 Build 0)  -->
<svg version="1.1" id="Layer_1" xmlns="http://www.w3.org/2000/svg" xmlns:xlink="http://www.w3.org/1999/xlink" x="0px" y="0px"
	 viewBox="0 0 8192 8192" style="enable-background:new 0 0 8192 8192;" xml:space="preserve">
<style type="text/css">
	.st0{fill:none;stroke:#000000;stroke-width:120;stroke-miterlimit:5.6889;}
	.st1{fill:none;stroke:#000000;stroke-width:120;stroke-linecap:round;stroke-linejoin:round;stroke-miterlimit:5.6889;}
</style>
<path class="st0" d="M2802,957.1c40.4,0,80.7,0,121.1,0c145,0,290,0,435-0.1"/>
<path class="st0" d="M5597.3,956.7c-167.9,0-335.9,0-503.8,0.1"/>
<path class="st0" d="M6191.3,956.7H6751c71.9,0.7,130.5,55.3,130.5,122.1v6770.6c0,66.8-58.6,121.6-130.3,121.6H1514.7
	c-71.7,0-130.3-54.7-130.3-121.6V1078.8c0-66.8,58.6-121.6,130.3-121.6c231.1,0,462.2,0,693.3-0.1"/>
<path class="st0" d="M4499.4,956.9c-182.4,0-364.8,0-547.2,0.1"/>
<path class="st0" d="M2807.3,567.2c-1.3,130-3.9,258.8-5.2,388.9c-2.6,164.1-3.9,328.1-6.5,490.9c-13,137.2-138.1,244.2-285.3,246.7
	c-147.2,1.2-274.8-102.1-291.8-239.3c-3.9-166.4-7.8-333-10.5-498.2c-2.6-121.6-5.2-241.8-7.8-363.4
	c-32.5-192,108.1-354.8,263.1-371.8C2630.1,203.8,2819,355.8,2807.3,567.2z"/>
<path class="st0" d="M3957.5,567.2c-1.3,130-3.9,258.8-5.2,388.9c-2.6,164.1-3.9,328.1-6.5,490.9c-13,137.2-138.1,244.2-285.3,246.7
	c-147.2,1.2-274.8-102.1-291.8-239.3c-3.9-166.4-7.8-333-10.5-498.2c-2.6-121.6-5.2-241.8-7.8-363.4
	c-32.5-192,108.1-354.8,263.1-371.8C3780.2,203.8,3969.2,355.8,3957.5,567.2z"/>
<path class="st0" d="M5098.7,567.2c-1.3,130-3.9,258.8-5.2,388.9c-2.6,164.1-3.9,328.1-6.5,490.9c-13,137.2-138.1,244.2-285.3,246.7
	c-147.2,1.2-274.8-102.1-291.8-239.3c-3.9-166.4-7.8-333-10.5-498.2c-2.6-121.6-5.2-241.8-7.8-363.4
	c-32.5-192,108.1-354.8,263.1-371.8C4921.5,203.8,5110.4,355.8,5098.7,567.2z"/>
<path class="st0" d="M6196.6,567.2c-1.3,130-3.9,258.8-5.2,388.9c-2.6,164.1-3.9,328.1-6.5,490.9c-13,137.2-138.1,244.2-285.3,246.7
	c-147.2,1.2-274.8-102.1-291.8-239.3c-3.9-166.4-7.8-333-10.5-498.2c-2.6-121.6-5.2-241.8-7.8-363.4
	c-32.5-192,108.1-354.8,263.1-371.8C6019.3,203.8,6208.3,355.8,6196.6,567.2z"/>
<g>
	<path class="st1" d="M2396.3,2886.5c22.8,15.5,53.6,39.9,82.7,76c54.8,68.1,55.4,118.3,85.8,126.2
		c45.8,11.8,104.9-86.5,140.6-136.7c66.1-93,183.8-206.7,410.1-292.2"/>
	<path class="st1" d="M3042.7,2546.5c-0.6-35.7-1.3-71.5-1.9-107.2c-269.6,1.9-539.2,3.8-808.8,5.7c2.8,259.9,5.6,519.7,8.6,779.6
		c268.4,0.6,536.8,1.2,805.2,1.9c-1-131.2-2-262.5-3.1-393.7"/>
</g>
<g>
	<path class="st1" d="M2396.3,4517.4c22.8,15.5,53.6,39.9,82.7,76c54.8,68.1,55.4,118.3,85.8,126.2
		c45.8,11.8,104.9-86.5,140.6-136.7c66.1-93,183.8-206.7,410.1-292.2"/>
	<path class="st1" d="M3042.7,4177.4c-0.6-35.7-1.3-71.5-1.9-107.2c-269.6,1.9-539.2,3.8-808.8,5.7c2.8,259.9,5.6,519.7,8.6,779.6
		c268.4,0.6,536.8,1.2,805.2,1.9c-1-131.2-2-262.5-3.1-393.7"/>
</g>
<g>
	<path class="st1" d="M2396.3,6002.8c22.8,15.5,53.6,39.9,82.7,76c54.8,68.1,55.4,118.3,85.8,126.2
		c45.8,11.8,104.9-86.5,140.6-136.7c66.1-93,183.8-206.7,410.1-292.2"/>
	<path class="st1" d="M3042.7,5662.9c-0.6-35.7-1.3-71.5-1.9-107.2c-269.6,1.9-539.2,3.8-808.8,5.7c2.8,259.9,5.6,519.7,8.6,779.6
		c268.4,0.6,536.8,1.2,805.2,1.9c-1-131.2-2-262.5-3.1-393.7"/>
</g>
<path class="st1" d="M3500.9,4488c898.8,3.4,1797.4,6.7,2696.2,10.1"/>
<path class="st1" d="M3500.9,2811.8c898.8,3.4,1797.4,6.7,2696.2,10.1"/>
<path class="st1" d="M3500.9,5939.2c898.8,3.4,1797.4,6.7,2696.2,10.1"/>
</svg>
